<svg width="14" height="22" viewBox="0 0 14 22" fill="none" xmlns="http://www.w3.org/2000/svg">
<path fill-rule="evenodd" clip-rule="evenodd" d="M7.02082 22H6.98612C3.13394 22 0 18.719 0 14.686V14.2216C0 14.123 0.00222096 14.0248 0.00606799 13.9267C0.00781303 13.8804 0.0110255 13.8343 0.0136034 13.7882C0.0163796 13.7395 0.0188385 13.6908 0.0224873 13.6422C0.0273258 13.5769 0.0335921 13.5117 0.0400567 13.4466C0.0425552 13.4217 0.0448159 13.397 0.0475127 13.3723C0.377683 10.316 2.41609 7.56352 4.23367 5.11097C5.6957 3.13811 6.95832 1.43448 6.95832 0.0290566C6.95832 0.0213503 6.96124 0.0139597 6.96645 0.00851048C6.97165 0.00306131 6.97872 0 6.98608 0H7.01733C7.02469 0 7.03176 0.00306131 7.03696 0.00851048C7.04217 0.0139597 7.04509 0.0213503 7.04509 0.0290566C7.04509 1.43448 8.30716 3.13811 9.76839 5.11106C11.7519 7.78866 14 10.8236 14 14.2216V14.686C14 18.719 10.8691 22 7.02082 22ZM13.2437 10.8438C13.2494 10.8582 13.2551 10.8725 13.2607 10.8868C13.255 10.8725 13.2494 10.8581 13.2437 10.8438ZM13.346 11.1104C13.3563 11.1381 13.3666 11.1658 13.3767 11.1934C13.3665 11.1657 13.3563 11.138 13.346 11.1104ZM13.4417 11.3793C13.454 11.4153 13.4666 11.4514 13.4785 11.4876C13.4666 11.4514 13.454 11.4153 13.4417 11.3793ZM13.5302 11.6502C13.5433 11.6921 13.5569 11.7339 13.5695 11.776C13.5569 11.7339 13.5434 11.6921 13.5302 11.6502ZM13.6101 11.9189C13.6373 12.0152 13.663 12.1118 13.6872 12.2088C13.663 12.1118 13.6373 12.0152 13.6101 11.9189ZM13.7162 12.3254C13.7288 12.3786 13.74 12.4321 13.7516 12.4855C13.7401 12.4321 13.7288 12.3786 13.7162 12.3254ZM13.7788 12.6124C13.7892 12.6638 13.7986 12.7155 13.8081 12.7672C13.7986 12.7155 13.7892 12.6638 13.7788 12.6124ZM13.8322 12.9032C13.8404 12.9527 13.848 13.0024 13.8555 13.0521C13.8481 13.0024 13.8404 12.9527 13.8322 12.9032ZM13.876 13.1989C13.8821 13.2458 13.8879 13.2929 13.8934 13.34C13.888 13.2929 13.8821 13.2457 13.876 13.1989ZM13.9096 13.5016C13.9136 13.5446 13.9178 13.5877 13.9211 13.6308C13.9178 13.5876 13.9136 13.5445 13.9096 13.5016ZM13.9327 13.8191C13.9345 13.8543 13.937 13.8894 13.9383 13.9247C13.937 13.8894 13.9345 13.8543 13.9326 13.8191H13.9327Z" fill="#00A9E9"/>
<path fill-rule="evenodd" clip-rule="evenodd" d="M9.00582 18H8.99592C8.46667 17.9993 7.95931 17.7889 7.58513 17.415C7.21095 17.041 7.00052 16.5341 7 16.0053V15.8786C7 15.8518 7.00058 15.825 7.00173 15.7982C7.00223 15.7856 7.00312 15.773 7.00389 15.7604C7.00466 15.7471 7.00536 15.7339 7.00643 15.7206C7.00782 15.7028 7.00959 15.685 7.01144 15.6673C7.01214 15.6605 7.01279 15.6538 7.01356 15.647C7.10787 14.8135 7.69024 14.0628 8.20967 13.3939C8.62735 12.8559 8.9881 12.3912 8.9881 12.0079C8.9881 12.0058 8.98893 12.0038 8.99042 12.0023C8.99191 12.0008 8.99393 12 8.99603 12H9.00493C9.00704 12 9.00905 12.0008 9.01054 12.0023C9.01203 12.0038 9.01287 12.0058 9.01287 12.0079C9.01287 12.3912 9.37346 12.8559 9.79106 13.3939C10.3578 14.1241 11 14.9519 11 15.8786V16.0052C10.9998 16.5338 10.7897 17.0407 10.4158 17.4146C10.0419 17.7886 9.53485 17.9991 9.00582 18ZM10.7837 14.9574L10.7885 14.969L10.7837 14.9574ZM10.8129 15.0301C10.8159 15.0378 10.8188 15.0452 10.8217 15.0528C10.8188 15.0451 10.8159 15.0377 10.8129 15.0301ZM10.8402 15.1035C10.8438 15.1133 10.8474 15.1231 10.8508 15.133C10.8474 15.1231 10.8438 15.1133 10.8402 15.1035ZM10.8655 15.1773C10.8694 15.1889 10.8733 15.2002 10.8768 15.2117C10.8732 15.2002 10.8693 15.1888 10.8655 15.1773ZM10.8884 15.2505C10.8961 15.2767 10.9034 15.3031 10.9104 15.3295C10.9035 15.3032 10.8961 15.2769 10.8884 15.2506V15.2505ZM10.9187 15.3614C10.9223 15.3759 10.9255 15.3904 10.9288 15.405C10.9256 15.3906 10.9223 15.3761 10.9187 15.3615V15.3614ZM10.9366 15.4396C10.9395 15.4537 10.9422 15.4677 10.9449 15.482C10.9422 15.4679 10.9395 15.4538 10.9366 15.4398V15.4396ZM10.952 15.5189C10.9543 15.5324 10.9565 15.546 10.9586 15.5595C10.9564 15.5461 10.9541 15.5326 10.9518 15.5191L10.952 15.5189ZM10.9645 15.5998C10.9662 15.6125 10.9679 15.6254 10.9694 15.6383C10.9678 15.6253 10.9661 15.6125 10.9642 15.5997L10.9645 15.5998ZM10.9741 15.6823C10.9752 15.694 10.9764 15.7058 10.9774 15.7175C10.9763 15.7057 10.9751 15.694 10.9739 15.6823L10.9741 15.6823ZM10.9807 15.7689C10.9812 15.7785 10.9819 15.7881 10.9823 15.7977C10.9817 15.7879 10.981 15.7785 10.9805 15.7687L10.9807 15.7689Z" fill="white"/>
</svg>
