<svg width="56" height="56" viewBox="0 0 56 56" fill="none" xmlns="http://www.w3.org/2000/svg">
<path d="M12.3495 14C8.95364 17.7927 7.05238 22.6907 6.99999 27.7813C6.87093 39.4133 16.368 48.9781 28 49C39.6156 49.0219 49 39.6123 49 28C49 16.5659 39.8617 7.26141 28.4922 7C28.4282 6.99795 28.3644 7.0088 28.3047 7.03191C28.245 7.05502 28.1906 7.08992 28.1446 7.13452C28.0987 7.17913 28.0622 7.23253 28.0374 7.29153C28.0125 7.35054 27.9998 7.41395 28 7.47797V16.625" stroke="#00A9E9" stroke-width="3" stroke-linecap="round" stroke-linejoin="round"/>
<path d="M25.526 30.4752L16.8853 18.1158C16.7658 17.9445 16.7103 17.7367 16.7287 17.5287C16.747 17.3206 16.838 17.1257 16.9857 16.978C17.1334 16.8304 17.3283 16.7394 17.5363 16.721C17.7444 16.7027 17.9522 16.7581 18.1235 16.8777L30.4828 25.5183C31.2409 26.0643 31.7536 26.8868 31.9099 27.8078C32.0663 28.7289 31.8538 29.6745 31.3183 30.44C30.7829 31.2056 29.9676 31.7296 29.0488 31.8987C28.13 32.0678 27.1815 31.8684 26.4086 31.3436C26.0669 31.1068 25.7683 30.813 25.526 30.4752Z" fill="#00A9E9"/>
</svg>
