<svg width="46" height="46" viewBox="0 0 46 46" fill="none" xmlns="http://www.w3.org/2000/svg">
<circle cx="23" cy="23" r="22" stroke="url(#paint0_linear)" stroke-width="2"/>
<path fill-rule="evenodd" clip-rule="evenodd" d="M23.0208 34H22.9861C19.1339 34 16 30.719 16 26.686V26.2216C16 26.123 16.0022 26.0248 16.0061 25.9267C16.0078 25.8804 16.011 25.8343 16.0136 25.7882C16.0164 25.7395 16.0188 25.6908 16.0225 25.6422C16.0273 25.5769 16.0336 25.5117 16.0401 25.4466C16.0426 25.4217 16.0448 25.397 16.0475 25.3723C16.3777 22.316 18.4161 19.5635 20.2337 17.111C21.6957 15.1381 22.9583 13.4345 22.9583 12.0291C22.9583 12.0214 22.9612 12.014 22.9664 12.0085C22.9717 12.0031 22.9787 12 22.9861 12H23.0173C23.0247 12 23.0318 12.0031 23.037 12.0085C23.0422 12.014 23.0451 12.0214 23.0451 12.0291C23.0451 13.4345 24.3072 15.1381 25.7684 17.1111C27.7519 19.7887 30 22.8236 30 26.2216V26.686C30 30.719 26.8691 34 23.0208 34ZM29.2437 22.8438C29.2494 22.8582 29.2551 22.8725 29.2607 22.8868C29.255 22.8725 29.2494 22.8581 29.2437 22.8438ZM29.346 23.1104C29.3563 23.1381 29.3666 23.1658 29.3767 23.1934C29.3665 23.1657 29.3563 23.138 29.346 23.1104ZM29.4417 23.3793C29.454 23.4153 29.4666 23.4514 29.4785 23.4876C29.4666 23.4514 29.454 23.4153 29.4417 23.3793ZM29.5302 23.6502C29.5433 23.6921 29.5569 23.7339 29.5695 23.776C29.5569 23.7339 29.5434 23.6921 29.5302 23.6502ZM29.6101 23.9189C29.6373 24.0152 29.663 24.1118 29.6872 24.2088C29.663 24.1118 29.6373 24.0152 29.6101 23.9189ZM29.7162 24.3254C29.7288 24.3786 29.74 24.4321 29.7516 24.4855C29.7401 24.4321 29.7288 24.3786 29.7162 24.3254ZM29.7788 24.6124C29.7892 24.6638 29.7986 24.7155 29.8081 24.7672C29.7986 24.7155 29.7892 24.6638 29.7788 24.6124ZM29.8322 24.9032C29.8404 24.9527 29.848 25.0024 29.8555 25.0521C29.8481 25.0024 29.8404 24.9527 29.8322 24.9032ZM29.876 25.1989C29.8821 25.2458 29.8879 25.2929 29.8934 25.34C29.888 25.2929 29.8821 25.2457 29.876 25.1989ZM29.9096 25.5016C29.9136 25.5446 29.9178 25.5877 29.9211 25.6308C29.9178 25.5876 29.9136 25.5445 29.9096 25.5016ZM29.9327 25.8191C29.9345 25.8543 29.937 25.8894 29.9383 25.9247C29.937 25.8894 29.9345 25.8543 29.9326 25.8191H29.9327Z" fill="#01A6E6"/>
<path fill-rule="evenodd" clip-rule="evenodd" d="M25.0058 30H24.9959C24.4667 29.9993 23.9593 29.7889 23.5851 29.415C23.211 29.041 23.0005 28.5341 23 28.0053V27.8786C23 27.8518 23.0006 27.825 23.0017 27.7982C23.0022 27.7856 23.0031 27.773 23.0039 27.7604C23.0047 27.7471 23.0054 27.7339 23.0064 27.7206C23.0078 27.7028 23.0096 27.685 23.0114 27.6673C23.0121 27.6605 23.0128 27.6538 23.0136 27.647C23.1079 26.8135 23.6902 26.0628 24.2097 25.3939C24.6274 24.8559 24.9881 24.3912 24.9881 24.0079C24.9881 24.0058 24.9889 24.0038 24.9904 24.0023C24.9919 24.0008 24.9939 24 24.996 24H25.0049C25.007 24 25.0091 24.0008 25.0105 24.0023C25.012 24.0038 25.0129 24.0058 25.0129 24.0079C25.0129 24.3912 25.3735 24.8559 25.7911 25.3939C26.3578 26.1241 27 26.9519 27 27.8786V28.0052C26.9998 28.5338 26.7897 29.0407 26.4158 29.4146C26.0419 29.7886 25.5349 29.9991 25.0058 30ZM26.7837 26.9574L26.7885 26.969L26.7837 26.9574ZM26.8129 27.0301C26.8159 27.0378 26.8188 27.0452 26.8217 27.0528C26.8188 27.0451 26.8159 27.0377 26.8129 27.0301ZM26.8402 27.1035C26.8438 27.1133 26.8474 27.1231 26.8508 27.133C26.8474 27.1231 26.8438 27.1133 26.8402 27.1035ZM26.8655 27.1773C26.8694 27.1889 26.8733 27.2002 26.8768 27.2117C26.8732 27.2002 26.8693 27.1888 26.8655 27.1773ZM26.8884 27.2505C26.8961 27.2767 26.9034 27.3031 26.9104 27.3295C26.9035 27.3032 26.8961 27.2769 26.8884 27.2506V27.2505ZM26.9187 27.3614C26.9223 27.3759 26.9255 27.3904 26.9288 27.405C26.9256 27.3906 26.9223 27.3761 26.9187 27.3615V27.3614ZM26.9366 27.4396C26.9395 27.4537 26.9422 27.4677 26.9449 27.482C26.9422 27.4679 26.9395 27.4538 26.9366 27.4398V27.4396ZM26.952 27.5189C26.9543 27.5324 26.9565 27.546 26.9586 27.5595C26.9564 27.5461 26.9541 27.5326 26.9518 27.5191L26.952 27.5189ZM26.9645 27.5998C26.9662 27.6125 26.9679 27.6254 26.9694 27.6383C26.9678 27.6253 26.9661 27.6125 26.9642 27.5997L26.9645 27.5998ZM26.9741 27.6823C26.9752 27.694 26.9764 27.7058 26.9774 27.7175C26.9763 27.7057 26.9751 27.694 26.9739 27.6823L26.9741 27.6823ZM26.9807 27.7689C26.9812 27.7785 26.9819 27.7881 26.9823 27.7977C26.9817 27.7879 26.981 27.7785 26.9805 27.7687L26.9807 27.7689Z" fill="white"/>
<defs>
<linearGradient id="paint0_linear" x1="23" y1="0" x2="23" y2="46" gradientUnits="userSpaceOnUse">
<stop stop-color="#0076B2"/>
<stop offset="1" stop-color="#00A9E9"/>
</linearGradient>
</defs>
</svg>
