<svg width="37" height="46" viewBox="0 0 37 46" fill="none" xmlns="http://www.w3.org/2000/svg">
<path d="M34.0408 23.8641C32.4538 20.0586 30.4241 16.7101 28.1985 14.1876C29.4009 13.9678 30.8366 13.814 32.9221 13.814V11.1092C29.754 11.1092 27.8957 11.447 26.2845 11.8294L29.6963 3.42483C23.6593 -0.617882 13.2824 -0.588491 7.29785 3.42483L10.7097 11.8294C9.09846 11.447 7.24015 11.1092 4.07205 11.1092V13.814C6.15755 13.814 7.5933 13.9678 8.79572 14.1876C3.48828 19.8015 -3.79647 37.318 2.33608 43.4906C5.06864 46.1642 9.66194 46.0644 14.9807 45.9485C17.2454 45.8855 19.7489 45.8855 22.0135 45.9485C26.3574 46.0509 31.981 46.2703 34.6581 43.4905C38.9645 39.082 36.4667 29.9446 34.0408 23.8641ZM18.4971 3.0853C22.1003 3.0853 24.8729 4.03438 26.2823 4.6442L23.0664 12.5664C21.0248 13.0157 15.9696 13.0158 13.9279 12.5664L10.712 4.64438C12.1229 4.03384 14.8949 3.0853 18.4971 3.0853ZM32.7665 41.5573C30.4796 44.0008 23.094 43.1349 18.4971 43.1934C13.8972 43.1347 6.51836 44.0008 4.22775 41.5572C3.21682 40.5681 2.72547 38.9631 2.72547 36.6503C2.63387 30.0722 6.98564 19.4149 11.8504 14.8948C15.0327 15.8404 21.9662 15.8392 25.1433 14.8949C30.0123 19.4189 34.3622 30.0798 34.2686 36.6504C34.2687 38.9631 33.7773 40.5682 32.7665 41.5573Z" fill="white"/>
<path d="M17.8584 24.5513C19.6431 23.9804 21.0216 25.0915 22.1395 25.637L23.4226 23.2562C22.1938 22.6202 21.4997 22.08 19.7689 21.7667V20.0352H17.0642V21.9631C14.2305 22.8334 12.9507 26.9026 15.3782 28.8344C16.2138 29.4898 17.3673 30.0444 19.3595 30.7487C21.6498 31.5776 20.3883 34.5748 18.4075 34.4992C17.1536 34.5065 16.7635 34.4457 15.8022 33.8169L14.6705 33.0766L13.19 35.3399C14.4827 36.1986 15.6577 37.0379 17.0643 37.1477V39.0582H19.769V37.0166C23.9862 35.8208 24.6738 29.7189 20.2609 28.1986C19.0809 27.7814 17.7763 27.2779 17.0474 26.7063C16.7527 26.4752 16.7969 26.0064 16.8175 25.8683C16.8841 25.4209 17.1967 24.8077 17.8584 24.5513Z" fill="white"/>
</svg>
