<svg width="30" height="34" viewBox="0 0 30 34" fill="none" xmlns="http://www.w3.org/2000/svg">
<path d="M26.9957 17.74L19.2827 16.6313L15.8118 9.64138C15.5798 9.16213 15.0031 8.96181 14.5238 9.19396C14.3286 9.28854 14.1709 9.44613 14.0764 9.64138L10.6056 16.6313L2.89251 17.74C2.52721 17.7984 2.22752 18.0606 2.12123 18.4149C2.02748 18.7563 2.11883 19.1219 2.36224 19.379L7.95418 24.8264L6.65262 32.4912C6.59403 32.8591 6.74212 33.2293 7.03831 33.4553C7.32997 33.6772 7.72231 33.7146 8.0506 33.5517L14.9441 29.8881L21.8376 33.5517L22.2715 33.6482C22.4826 33.6661 22.6918 33.5963 22.8499 33.4553C23.146 33.2293 23.2942 32.8591 23.2356 32.4912L21.934 24.8264L27.526 19.379C27.7694 19.1219 27.8608 18.7563 27.767 18.4149C27.6607 18.0607 27.361 17.7984 26.9957 17.74ZM20.1986 23.8141C20.0013 24.0383 19.9131 24.3383 19.9576 24.6336L21.0182 30.9004L15.378 27.9599C15.1034 27.8296 14.7849 27.8296 14.5103 27.9599L8.87005 30.9004L9.93061 24.6336C9.97508 24.3383 9.88687 24.0384 9.6896 23.8141L5.10995 19.3791L11.425 18.4632C11.7354 18.4086 12.0028 18.2125 12.1481 17.9329L14.9441 12.2445L17.7401 17.9329C17.8854 18.2125 18.1527 18.4086 18.4632 18.4632L24.7783 19.3791L20.1986 23.8141Z" fill="white"/>
<path d="M14.9441 6.74892C15.4766 6.74892 15.9083 6.31728 15.9083 5.78479V0.964132C15.9083 0.43164 15.4765 0 14.9441 0C14.4117 0 13.98 0.43164 13.98 0.964132V5.78479C13.98 6.31728 14.4116 6.74892 14.9441 6.74892Z" fill="white"/>
<path d="M29.5024 5.1099C29.0764 4.79037 28.4721 4.87673 28.1526 5.30274L25.2602 9.15926C24.9408 9.58528 25.027 10.1896 25.4531 10.5091C25.6182 10.6375 25.8223 10.7056 26.0315 10.7019C26.3332 10.6948 26.616 10.5534 26.8028 10.3162L29.6952 6.45972C30.0148 6.03371 29.9284 5.42934 29.5024 5.1099Z" fill="white"/>
<path d="M3.85655 10.7018C4.06573 10.7055 4.26992 10.6374 4.43499 10.5089C4.861 10.1894 4.94728 9.58512 4.62784 9.15911L1.73553 5.30258C1.416 4.87657 0.811723 4.7903 0.385711 5.10974C-0.0403008 5.42918 -0.126574 6.03355 0.192866 6.45956L3.08526 10.3161C3.27202 10.5532 3.55483 10.6946 3.85655 10.7018Z" fill="white"/>
</svg>
