<svg width="50" height="50" viewBox="0 0 50 50" fill="none" xmlns="http://www.w3.org/2000/svg">
<path d="M47.8694 24.8211L47.8325 24.8225C46.6984 24.8651 45.7195 25.662 45.452 26.7604L44.6674 29.9826C43.922 33.0427 41.8719 35.5911 39.0425 36.9743C38.7102 37.1366 38.3353 37.1011 38.0396 36.8788C37.7439 36.6566 37.6054 36.3064 37.669 35.9421L38.2885 32.3942C38.4751 31.3252 37.7877 30.3207 36.7235 30.1074C35.9158 29.9458 35.107 30.2894 34.6629 30.9832L30.6537 37.2459C30.0797 36.8321 29.2726 36.8816 28.7564 37.3977L25.8483 40.3058C25.5623 40.5919 25.5623 41.0556 25.8483 41.3416L34.2923 49.7855C34.4353 49.9285 34.6228 50 34.8102 50C34.9976 50 35.1851 49.9285 35.3282 49.7855L38.2363 46.8774C38.7802 46.3335 38.8067 45.4661 38.3176 44.8892C39.2504 44.3703 40.1609 43.7758 41.0248 43.1203C41.347 42.8759 41.41 42.4164 41.1655 42.0941C40.9213 41.772 40.4618 41.7089 40.1393 41.9534C38.6542 43.0801 37.4095 43.7111 37.2456 43.8085L31.7257 38.2886L35.8966 31.7731C36.0128 31.5916 36.2244 31.5022 36.4357 31.5438C36.7143 31.5997 36.8942 31.8626 36.8453 32.1424L36.2259 35.6902C36.068 36.5944 36.4259 37.4986 37.1595 38.0499C37.8933 38.6013 38.8612 38.6934 39.6857 38.2903C42.9073 36.7153 45.2419 33.8137 46.0905 30.3293L46.8752 27.1071C47.1277 26.0696 48.6201 26.0214 48.5321 26.9306C48.0501 31.9004 45.829 36.5762 42.2779 40.0966C41.9907 40.3813 41.9887 40.8451 42.2734 41.1323C42.5582 41.4195 43.0218 41.4218 43.3092 41.1368C47.1025 37.3763 49.4752 32.3812 49.99 27.0719C50.1095 25.8421 49.1208 24.7768 47.8694 24.8211ZM34.8102 48.2318L27.4026 40.8242L29.7988 38.4335L37.2004 45.8415L34.8102 48.2318Z" fill="#0076B2"/>
<path d="M15.4883 12.3534L16.4621 12.8931C16.4702 12.8977 16.477 12.9042 16.4816 12.9123L18.0053 15.5512C18.01 15.5592 18.0123 15.5684 18.0121 15.5776L17.9927 16.691C17.9831 17.2416 18.2733 17.7547 18.7503 18.0301L20.9572 19.3041C21.1917 19.4396 21.4535 19.5072 21.7151 19.5072C21.9855 19.5072 22.2558 19.4351 22.4956 19.2908L23.4505 18.7171C23.4582 18.7125 23.4672 18.7101 23.4765 18.7101H26.5237C26.533 18.7101 26.5421 18.7125 26.55 18.7173L27.5046 19.2909C27.9768 19.5745 28.5663 19.5797 29.0429 19.3042L31.2498 18.0301C31.7268 17.7548 32.0169 17.2417 32.0074 16.691L31.9881 15.5776C31.9879 15.5684 31.9902 15.5593 31.9948 15.5513L33.5187 12.9122C33.5232 12.9042 33.53 12.8977 33.5378 12.8933L34.5118 12.3534C34.9935 12.0865 35.2927 11.5785 35.2927 11.0278V8.47949C35.2927 7.92891 34.9936 7.421 34.5118 7.15391L33.5381 6.61426C33.53 6.60967 33.5232 6.60312 33.5185 6.59492L33.4305 6.44248C33.2282 6.09228 32.7801 5.97227 32.43 6.17461C32.0797 6.37686 31.9598 6.8248 32.1621 7.1751L32.2499 7.32734C32.3873 7.56543 32.587 7.76172 32.8277 7.89521L33.8016 8.43496C33.8178 8.44404 33.8279 8.46103 33.8279 8.47949V11.0278C33.8279 11.0463 33.8179 11.0633 33.8018 11.0723L32.8274 11.6123C32.587 11.7456 32.3873 11.942 32.25 12.1799L30.7262 14.8189C30.5888 15.0571 30.5187 15.3283 30.5234 15.6031L30.5428 16.7165C30.5432 16.735 30.5334 16.7521 30.5174 16.7614L28.3104 18.0356C28.2944 18.0447 28.2745 18.0445 28.259 18.0352L27.3045 17.4616C27.0688 17.32 26.7988 17.2451 26.5238 17.2451H23.4766C23.2014 17.2451 22.9314 17.32 22.696 17.4616L21.7413 18.0352C21.7256 18.0446 21.7059 18.0448 21.6899 18.0355L19.483 16.7615C19.467 16.7521 19.4571 16.7351 19.4575 16.7165L19.477 15.6031C19.4817 15.3283 19.4116 15.0571 19.2741 14.8188L17.7505 12.18C17.6131 11.9419 17.4134 11.7456 17.1727 11.6121L16.1986 11.0723C16.1825 11.0634 16.1725 11.0463 16.1725 11.0278V8.47949C16.1725 8.46103 16.1826 8.44394 16.1985 8.43506L17.173 7.89502C17.4134 7.76172 17.6131 7.56533 17.7504 7.32744L19.2742 4.68838C19.4116 4.45019 19.4817 4.179 19.477 3.9042L19.4575 2.79082C19.4571 2.77246 19.4669 2.75527 19.4829 2.746L21.69 1.47168C21.7061 1.4625 21.7256 1.4627 21.7414 1.47227L22.6961 2.0459C22.9317 2.1874 23.2017 2.2623 23.4766 2.2623H26.5238C26.7985 2.2623 27.0684 2.1875 27.3044 2.0458L28.259 1.47227C28.2748 1.4627 28.2944 1.4625 28.3105 1.47178L30.5176 2.74609C30.5334 2.75527 30.5432 2.77246 30.5428 2.79082L30.5234 3.9043C30.5194 4.13457 30.5707 4.36865 30.6718 4.58105C30.8456 4.94629 31.2827 5.10166 31.6478 4.92803C32.0131 4.7543 32.1684 4.31729 31.9947 3.95205C31.9898 3.9417 31.9881 3.9335 31.9882 3.92979L32.0075 2.81641C32.0171 2.26562 31.7268 1.75254 31.2499 1.47744L29.0429 0.203125C28.566 -0.0723632 27.9764 -0.0673828 27.5044 0.216504L26.5502 0.789844C26.5421 0.794727 26.5329 0.797266 26.5237 0.797266H23.4765C23.4672 0.797266 23.4581 0.794727 23.4502 0.790039L22.4958 0.216602C22.024 -0.0670898 21.4343 -0.0724609 20.9573 0.203027L18.7504 1.47715C18.2734 1.75244 17.9832 2.26553 17.9927 2.81621L18.0121 3.92959C18.0123 3.93887 18.01 3.94795 18.0054 3.95596L16.4815 6.59502C16.477 6.60303 16.4702 6.60957 16.4624 6.61396L15.488 7.15391C15.0065 7.421 14.7075 7.929 14.7075 8.47939V11.0277C14.7075 11.5785 15.0066 12.0864 15.4883 12.3534Z" fill="#0076B2"/>
<path d="M24.9999 5.32422C22.5576 5.32422 20.5706 7.31133 20.5706 9.75371C20.5706 12.1961 22.5577 14.1831 24.9999 14.1831C27.4424 14.1831 29.4294 12.196 29.4294 9.75371C29.4295 7.31123 27.4424 5.32422 24.9999 5.32422ZM24.9999 12.7184C23.3653 12.7184 22.0354 11.3885 22.0354 9.75381C22.0354 8.11914 23.3653 6.78906 24.9999 6.78906C26.6346 6.78906 27.9646 8.11904 27.9646 9.75371C27.9646 11.3884 26.6346 12.7184 24.9999 12.7184Z" fill="#0076B2"/>
<path d="M38.325 24.1357C40.1422 24.1357 41.6208 22.6572 41.6208 20.8399C41.6208 19.0227 40.1422 17.5441 38.325 17.5441C36.5077 17.5441 35.0291 19.0227 35.0291 20.8399C35.0291 22.6572 36.5077 24.1357 38.325 24.1357ZM38.325 19.009C39.3345 19.009 40.1559 19.8304 40.1559 20.8399C40.1559 21.8495 39.3345 22.6709 38.325 22.6709C37.3153 22.6709 36.4939 21.8495 36.4939 20.8399C36.4939 19.8304 37.3154 19.009 38.325 19.009Z" fill="#0076B2"/>
<path d="M33.2418 16.0337L33.2544 16.7531L32.2504 18.4921L31.6214 18.8408C31.216 19.0653 30.9641 19.4929 30.9641 19.9564V21.7233C30.9641 22.1867 31.2159 22.6143 31.6212 22.839L32.2504 23.1878L33.2544 24.9267L33.2418 25.6462C33.2338 26.1095 33.4781 26.5413 33.8793 26.7731L35.4096 27.6565C35.607 27.7704 35.8271 27.8273 36.0473 27.8273C36.2749 27.8273 36.5023 27.7665 36.7042 27.6452L37.3209 27.2746H39.329L39.9457 27.6452C40.3428 27.8838 40.8388 27.8882 41.2404 27.6565L42.7705 26.7731C43.1718 26.5414 43.4161 26.1097 43.4081 25.6462L43.3955 24.9267L44.3995 23.1878L45.029 22.8389C45.4341 22.6141 45.6859 22.1866 45.6859 21.7233V19.9564C45.6859 19.493 45.4341 19.0655 45.0289 18.8409L44.3995 18.492L43.3955 16.7531L43.4081 16.0337C43.4161 15.5702 43.1718 15.1385 42.7706 14.9068L41.2403 14.0233C40.8392 13.7916 40.343 13.7962 39.9457 14.0347L39.329 14.4053H37.3209L36.7042 14.0347C36.3071 13.7961 35.811 13.7917 35.4095 14.0233L33.8792 14.9069C33.4781 15.1386 33.2338 15.5704 33.2418 16.0337ZM34.7084 16.1196L36.0453 15.3478L36.6117 15.6881C36.81 15.8072 37.0371 15.8701 37.2685 15.8701H39.3814C39.6127 15.8701 39.8398 15.8071 40.0383 15.688L40.6046 15.3478L41.9416 16.1196L41.93 16.7802C41.926 17.0118 41.9851 17.2402 42.1007 17.4401L43.157 19.2695C43.2726 19.4701 43.4408 19.6355 43.6432 19.7477L44.221 20.068V21.6118L43.643 21.9321C43.4406 22.0444 43.2724 22.2099 43.1571 22.4099L42.1007 24.2395C41.9849 24.4399 41.9259 24.6682 41.9299 24.8997L41.9415 25.5603L40.6045 26.332L40.0381 25.9918C39.8398 25.8727 39.6127 25.8098 39.3813 25.8098H37.2685C37.0372 25.8098 36.8101 25.8728 36.6115 25.9919L36.0453 26.332L34.7084 25.5603L34.7199 24.8997C34.7239 24.6682 34.6649 24.4399 34.5492 24.2397L33.4929 22.4103C33.3773 22.2097 33.2091 22.0443 33.0066 21.9321L32.4289 21.6119V20.0681L33.006 19.7481C33.2087 19.636 33.3772 19.4705 33.4927 19.27L34.5489 17.4407C34.6648 17.2403 34.7239 17.0119 34.7199 16.7803L34.7084 16.1196Z" fill="#0076B2"/>
<path d="M11.6752 24.1357C13.4925 24.1357 14.971 22.6572 14.971 20.8399C14.971 19.0227 13.4925 17.5441 11.6752 17.5441C9.85791 17.5441 8.37939 19.0227 8.37939 20.8399C8.37939 22.6572 9.85791 24.1357 11.6752 24.1357ZM11.6752 19.009C12.6848 19.009 13.5062 19.8304 13.5062 20.8399C13.5062 21.8495 12.6848 22.6709 11.6752 22.6709C10.6656 22.6709 9.84424 21.8495 9.84424 20.8399C9.84424 19.8304 10.6656 19.009 11.6752 19.009Z" fill="#0076B2"/>
<path d="M4.97134 22.8389L5.60073 23.1877L6.60464 24.9266L6.59194 25.6461C6.58394 26.1095 6.82827 26.5413 7.22954 26.7729L8.75962 27.6562C9.16069 27.8881 9.65689 27.8838 10.0544 27.6451L10.6711 27.2745H12.6791L13.2958 27.6451C13.4978 27.7664 13.7251 27.8271 13.9529 27.8271C14.173 27.8271 14.3932 27.7703 14.5905 27.6563L16.1206 26.7729C16.5219 26.5413 16.7663 26.1095 16.7583 25.646L16.7456 24.9266L17.7495 23.1877L18.3791 22.8388C18.7842 22.614 19.0361 22.1865 19.0361 21.7232V19.9563C19.0361 19.4929 18.7842 19.0654 18.379 18.8408L17.7496 18.4919L16.7456 16.753L16.7583 16.0336C16.7663 15.5702 16.5219 15.1384 16.1207 14.9067L14.5906 14.0233C14.1894 13.7914 13.6933 13.7959 13.2959 14.0346L12.6791 14.4052H10.6711L10.0542 14.0345C9.65689 13.7958 9.16089 13.7917 8.75972 14.0232L7.22964 14.9067C6.82827 15.1384 6.58394 15.5702 6.59194 16.0337L6.60464 16.753L5.60073 18.4919L4.97144 18.8407C4.56606 19.0654 4.31421 19.4929 4.31421 19.9563V21.7232C4.31421 22.1866 4.56597 22.6141 4.97134 22.8389ZM5.77905 20.068L6.3562 19.748C6.55874 19.636 6.7271 19.4707 6.84302 19.2699L7.89956 17.44C8.01519 17.2397 8.07417 17.0114 8.07017 16.7801L8.05854 16.1197L9.39556 15.3478L9.96167 15.6879C10.16 15.8071 10.3872 15.8701 10.6187 15.8701H12.7317C12.9631 15.8701 13.1903 15.807 13.3885 15.688L13.9549 15.3478L15.2918 16.1197L15.2802 16.7802C15.2762 17.0114 15.3352 17.2397 15.4509 17.4401L16.5075 19.2701C16.6234 19.4708 16.7917 19.636 16.9942 19.7481L17.5713 20.0681V21.6119L16.9936 21.9321C16.7913 22.0442 16.6231 22.2095 16.5074 22.41L15.4507 24.2401C15.3351 24.4406 15.2762 24.6687 15.2802 24.8999L15.2918 25.5603L13.9548 26.3321L13.3887 25.9921C13.1904 25.8729 12.9632 25.8099 12.7317 25.8099H10.6187C10.3873 25.8099 10.1601 25.8729 9.96187 25.992L9.39556 26.3321L8.05854 25.5603L8.07017 24.8998C8.07417 24.6687 8.01528 24.4406 7.89946 24.2397L6.84292 22.4098C6.7272 22.2095 6.55913 22.0443 6.35669 21.9321L5.77896 21.6119V20.068H5.77905Z" fill="#0076B2"/>
<path d="M21.2434 37.3976C20.7272 36.8815 19.9202 36.832 19.3462 37.2458L15.337 30.9831C14.8929 30.2894 14.0836 29.945 13.2763 30.1074C12.2122 30.3206 11.5247 31.3251 11.7114 32.3941L12.3307 35.942C12.3943 36.3062 12.2558 36.6564 11.9601 36.8787C11.6646 37.1009 11.2895 37.1365 10.9573 36.9741C8.12791 35.5908 6.07772 33.0424 5.3325 29.9825L4.54773 26.7604C4.28025 25.6619 3.30135 24.865 2.16678 24.8224L2.13084 24.821C0.889239 24.7734 -0.10998 25.8352 0.00974664 27.0718C0.737188 34.5728 5.09949 41.2274 11.6827 44.8888C11.1932 45.4655 11.2194 46.3332 11.7636 46.8774L14.6717 49.7855C14.8147 49.9285 15.0021 50 15.1896 50C15.377 50 15.5645 49.9285 15.7075 49.7855L18.9577 46.5355C19.2437 46.2494 19.2437 45.7857 18.9577 45.4997C18.6717 45.2139 18.208 45.2137 17.9219 45.4997L15.1902 48.2313L12.7995 45.8353L20.2076 38.4336L22.5979 40.8238L19.9925 43.4291C19.7064 43.7152 19.7064 44.1789 19.9925 44.4649C20.2786 44.7508 20.7424 44.751 21.0282 44.4649L24.1514 41.3418C24.2888 41.2044 24.366 41.0182 24.366 40.8238C24.366 40.6295 24.2888 40.4434 24.1515 40.3059L21.2434 37.3976ZM1.46775 26.9305C1.43289 26.5706 1.72742 26.2687 2.07615 26.2851C2.08592 26.2854 2.12225 26.2867 2.11248 26.2864C2.60281 26.3048 3.00955 26.6346 3.12449 27.107L3.90926 30.3292C4.75779 33.8135 7.09227 36.7151 10.3139 38.2902C11.1385 38.6933 12.1065 38.6013 12.8401 38.0498C13.5739 37.4984 13.9316 36.5943 13.7738 35.6901L13.1545 32.1423C13.1055 31.8625 13.2855 31.5996 13.5639 31.5437C13.7758 31.5016 13.987 31.5913 14.1032 31.773L18.2741 38.2885L12.7542 43.8084C12.6655 43.7261 2.64022 39.02 1.46775 26.9305Z" fill="#0076B2"/>
</svg>
