<svg width="24" height="24" viewBox="0 0 24 24" fill="none" xmlns="http://www.w3.org/2000/svg">
<path d="M12 10.9456C11.9342 10.9456 11.8699 10.9519 11.8074 10.9635L8.58963 5.39021C8.49259 5.22202 8.27749 5.16446 8.10939 5.26149C7.94125 5.35857 7.88364 5.57359 7.98072 5.74173L11.1988 11.3155C11.0409 11.4999 10.9453 11.7391 10.9453 12.0002C10.9453 12.4585 11.2393 12.8493 11.6484 12.9944V20.8362C11.6484 21.0304 11.8058 21.1878 12 21.1878C12.1942 21.1878 12.3516 21.0304 12.3516 20.8362V12.9945C12.7607 12.8493 13.0547 12.4585 13.0547 12.0002C13.0547 11.4187 12.5815 10.9456 12 10.9456ZM12 12.3518C11.8061 12.3518 11.6484 12.1941 11.6484 12.0002C11.6484 11.8064 11.8061 11.6487 12 11.6487C12.1939 11.6487 12.3516 11.8064 12.3516 12.0002C12.3516 12.1941 12.1939 12.3518 12 12.3518Z" fill="black"/>
<path d="M20.4853 3.51469C18.2188 1.24823 15.2053 0 12 0C8.79469 0 5.78119 1.24823 3.51469 3.51469C1.24819 5.78114 0 8.79469 0 12C0 15.2053 1.24823 18.2188 3.51469 20.4853C5.78114 22.7518 8.79469 24 12 24C15.2053 24 18.2188 22.7518 20.4853 20.4853C22.7518 18.2189 24 15.2053 24 12C24 8.79469 22.7518 5.78119 20.4853 3.51469ZM12 23.2969C5.77087 23.2969 0.703125 18.2291 0.703125 12C0.703125 5.77087 5.77087 0.703125 12 0.703125C18.2291 0.703125 23.2969 5.77087 23.2969 12C23.2969 18.2291 18.2291 23.2969 12 23.2969Z" fill="black"/>
<path d="M12 3.51562C12.1942 3.51562 12.3516 3.35823 12.3516 3.16406C12.3516 2.9699 12.1942 2.8125 12 2.8125C11.8058 2.8125 11.6484 2.9699 11.6484 3.16406C11.6484 3.35823 11.8058 3.51562 12 3.51562Z" fill="black"/>
<path d="M7.58203 4.69922C7.77619 4.69922 7.93359 4.54182 7.93359 4.34766C7.93359 4.15349 7.77619 3.99609 7.58203 3.99609C7.38787 3.99609 7.23047 4.15349 7.23047 4.34766C7.23047 4.54182 7.38787 4.69922 7.58203 4.69922Z" fill="black"/>
<path d="M4.34766 7.93359C4.54182 7.93359 4.69922 7.77619 4.69922 7.58203C4.69922 7.38787 4.54182 7.23047 4.34766 7.23047C4.15349 7.23047 3.99609 7.38787 3.99609 7.58203C3.99609 7.77619 4.15349 7.93359 4.34766 7.93359Z" fill="black"/>
<path d="M3.16406 12.3516C3.35823 12.3516 3.51562 12.1942 3.51562 12C3.51562 11.8058 3.35823 11.6484 3.16406 11.6484C2.9699 11.6484 2.8125 11.8058 2.8125 12C2.8125 12.1942 2.9699 12.3516 3.16406 12.3516Z" fill="black"/>
<path d="M4.34766 16.7695C4.54182 16.7695 4.69922 16.6121 4.69922 16.418C4.69922 16.2238 4.54182 16.0664 4.34766 16.0664C4.15349 16.0664 3.99609 16.2238 3.99609 16.418C3.99609 16.6121 4.15349 16.7695 4.34766 16.7695Z" fill="black"/>
<path d="M7.58203 20.0039C7.77619 20.0039 7.93359 19.8465 7.93359 19.6523C7.93359 19.4582 7.77619 19.3008 7.58203 19.3008C7.38787 19.3008 7.23047 19.4582 7.23047 19.6523C7.23047 19.8465 7.38787 20.0039 7.58203 20.0039Z" fill="black"/>
<path d="M16.418 20.0039C16.6121 20.0039 16.7695 19.8465 16.7695 19.6523C16.7695 19.4582 16.6121 19.3008 16.418 19.3008C16.2238 19.3008 16.0664 19.4582 16.0664 19.6523C16.0664 19.8465 16.2238 20.0039 16.418 20.0039Z" fill="black"/>
<path d="M19.6523 16.7695C19.8465 16.7695 20.0039 16.6121 20.0039 16.418C20.0039 16.2238 19.8465 16.0664 19.6523 16.0664C19.4582 16.0664 19.3008 16.2238 19.3008 16.418C19.3008 16.6121 19.4582 16.7695 19.6523 16.7695Z" fill="black"/>
<path d="M20.8359 12.3516C21.0301 12.3516 21.1875 12.1942 21.1875 12C21.1875 11.8058 21.0301 11.6484 20.8359 11.6484C20.6418 11.6484 20.4844 11.8058 20.4844 12C20.4844 12.1942 20.6418 12.3516 20.8359 12.3516Z" fill="black"/>
<path d="M19.6523 7.93359C19.8465 7.93359 20.0039 7.77619 20.0039 7.58203C20.0039 7.38787 19.8465 7.23047 19.6523 7.23047C19.4582 7.23047 19.3008 7.38787 19.3008 7.58203C19.3008 7.77619 19.4582 7.93359 19.6523 7.93359Z" fill="black"/>
<path d="M16.418 4.69922C16.6121 4.69922 16.7695 4.54182 16.7695 4.34766C16.7695 4.15349 16.6121 3.99609 16.418 3.99609C16.2238 3.99609 16.0664 4.15349 16.0664 4.34766C16.0664 4.54182 16.2238 4.69922 16.418 4.69922Z" fill="black"/>
<path d="M19.4909 4.50909C17.49 2.50819 14.8297 1.40625 12 1.40625C9.44011 1.40625 6.96867 2.33194 5.04103 4.01269C4.89469 4.14033 4.8795 4.36237 5.00705 4.50872C5.13469 4.65511 5.35678 4.67025 5.50308 4.54266C7.3027 2.97356 9.60998 2.10938 12 2.10938C17.4537 2.10938 21.8906 6.54628 21.8906 12C21.8906 17.4537 17.4537 21.8906 12 21.8906C6.54628 21.8906 2.10938 17.4537 2.10938 12C2.10938 9.60998 2.97356 7.3027 4.54266 5.50308C4.6703 5.35673 4.65506 5.13469 4.50872 5.00705C4.36247 4.87945 4.14037 4.89459 4.01269 5.04103C2.33194 6.96867 1.40625 9.44011 1.40625 12C1.40625 14.8297 2.50819 17.49 4.50909 19.4909C6.51 21.4918 9.17034 22.5938 12 22.5938C14.8297 22.5938 17.49 21.4918 19.4909 19.4909C21.4918 17.49 22.5938 14.8297 22.5938 12C22.5938 9.17034 21.4918 6.51 19.4909 4.50909Z" fill="black"/>
</svg>
