<svg width="39" height="44" viewBox="0 0 39 44" fill="none" xmlns="http://www.w3.org/2000/svg">
<path d="M16.5647 40.5625H6.79958C4.92505 40.5625 3.39049 39.0203 3.39049 37.125V11.1719C3.39049 9.27655 4.92505 7.73438 6.79958 7.73438H12.145V8.59375C12.145 11.4371 14.4325 13.75 17.2446 13.75C20.0564 13.75 22.3443 11.4371 22.3443 8.59375V7.73438H27.699C29.5735 7.73438 31.0988 9.27655 31.0988 11.1719V24.4062C31.0988 25.3556 31.8597 26.125 32.7987 26.125C33.7373 26.125 34.4986 25.3556 34.4986 24.4062V11.1719C34.4986 7.38089 31.4481 4.29688 27.699 4.29688H22.3443V1.71875C22.3443 0.769409 21.583 0 20.6444 0H13.8448C12.9059 0 12.145 0.769409 12.145 1.71875V4.29688H6.79958C3.05018 4.29688 0 7.38089 0 11.1719V37.125C0 40.916 3.05018 44 6.79958 44H16.5647C17.5033 44 18.2646 43.2306 18.2646 42.2812C18.2646 41.3319 17.5033 40.5625 16.5647 40.5625ZM15.5447 3.4375H18.9445V8.59375C18.9445 9.54141 18.1819 10.3125 17.2446 10.3125C16.307 10.3125 15.5447 9.54141 15.5447 8.59375V3.4375ZM38.6822 30.3913L30.2694 42.2729C30.2508 42.2987 30.2319 42.3242 30.2123 42.3491C29.4484 43.3102 28.3125 43.9084 27.0961 43.9903C26.9998 43.9966 26.9035 44 26.8075 44C25.6907 44 24.605 43.5646 23.7919 42.7818L18.3619 37.51C17.6849 36.8528 17.663 35.7648 18.3134 35.08C18.9631 34.3955 20.0395 34.373 20.7168 35.0309L26.1412 40.297C26.4045 40.5504 26.7109 40.5706 26.8696 40.5605C27.0233 40.5501 27.3102 40.492 27.539 40.2238L35.9179 28.3903C36.4641 27.6185 37.5258 27.4406 38.2895 27.9931C39.0528 28.5457 39.2287 29.6192 38.6822 30.3913ZM11.72 20.5391C11.72 21.4884 10.9587 22.2578 10.0201 22.2578H9.17013C8.23121 22.2578 7.47024 21.4884 7.47024 20.5391C7.47024 19.5897 8.23121 18.8203 9.17013 18.8203H10.0201C10.9587 18.8203 11.72 19.5897 11.72 20.5391ZM27.189 20.5391C27.189 21.4884 26.4277 22.2578 25.4891 22.2578H15.9697C15.0308 22.2578 14.2698 21.4884 14.2698 20.5391C14.2698 19.5897 15.0308 18.8203 15.9697 18.8203H25.4891C26.4277 18.8203 27.189 19.5897 27.189 20.5391ZM11.72 27.4141C11.72 28.3634 10.9587 29.1328 10.0201 29.1328H9.17013C8.23121 29.1328 7.47024 28.3634 7.47024 27.4141C7.47024 26.4647 8.23121 25.6953 9.17013 25.6953H10.0201C10.9587 25.6953 11.72 26.4647 11.72 27.4141ZM27.189 27.4141C27.189 28.3634 26.4277 29.1328 25.4891 29.1328H15.9697C15.0308 29.1328 14.2698 28.3634 14.2698 27.4141C14.2698 26.4647 15.0308 25.6953 15.9697 25.6953H25.4891C26.4277 25.6953 27.189 26.4647 27.189 27.4141Z" fill="white"/>
</svg>
