<svg width="30" height="30" viewBox="0 0 30 30" fill="none" xmlns="http://www.w3.org/2000/svg">
<path d="M22.0731 0.838745L22.9119 -5.66428e-05L24.5895 1.67755L23.7507 2.51635L22.0731 0.838745Z" fill="white"/>
<path d="M26.8947 5.66284L27.7335 4.82404L29.4111 6.50164L28.5723 7.34045L26.8947 5.66284Z" fill="white"/>
<path d="M26.6858 1.67798L28.3634 0.000374996L29.2022 0.839177L27.5246 2.51678L26.6858 1.67798Z" fill="white"/>
<path d="M12.4556 29.4683C5.58721 29.4683 0 23.8811 0 17.0127C0 10.1443 5.58721 4.55713 12.4556 4.55713C19.3239 4.55713 24.9111 10.1443 24.9111 17.0127C24.9111 23.8811 19.3239 29.4683 12.4556 29.4683ZM12.4556 6.3365C6.56824 6.3365 1.77937 11.1266 1.77937 17.0127C1.77937 22.8988 6.56824 27.6889 12.4556 27.6889C18.3429 27.6889 23.1318 22.8988 23.1318 17.0127C23.1318 11.1266 18.3429 6.3365 12.4556 6.3365Z" fill="white"/>
<path d="M11.5659 10.1919H13.3452V17.0128H11.5659V10.1919Z" fill="white"/>
<path d="M8.30371 0.998413H16.6074V2.77778H8.30371V0.998413Z" fill="white"/>
<path d="M11.5659 1.88806H13.3452V5.4468H11.5659V1.88806Z" fill="white"/>
<path d="M19.9944 8.21228L22.7944 5.41236L24.0526 6.67056L21.2526 9.47048L19.9944 8.21228Z" fill="white"/>
</svg>
