<svg width="36" height="48" viewBox="0 0 36 48" fill="none" xmlns="http://www.w3.org/2000/svg">
<path d="M31.4467 4.27491H27.0143V2.50835C27.0143 1.50235 26.1989 0.687012 25.1929 0.687012H10.8645C9.85848 0.687012 9.04314 1.50235 9.04314 2.50835V4.27491H4.61145C2.10071 4.27491 0.0581055 6.31751 0.0581055 8.82826V42.7599C0.0581055 45.2707 2.10071 47.3133 4.61145 47.3133H31.4467C33.9574 47.3133 36 45.2707 36 42.7599V8.82826C36 6.31751 33.9571 4.27491 31.4467 4.27491ZM23.3716 4.32969V7.86316H12.6855C12.6855 6.65261 12.6855 5.65265 12.6855 4.32969H23.3716ZM32.3574 42.7599C32.3574 43.2622 31.9486 43.6706 31.4467 43.6706H4.61145C4.10916 43.6706 3.70078 43.2622 3.70078 42.7599V8.82826C3.70078 8.32632 4.10916 7.91759 4.61145 7.91759H9.04279V9.6845C9.04279 10.6905 9.85848 11.5058 10.8641 11.5058H25.1929C26.1986 11.5058 27.0143 10.6905 27.0143 9.6845V7.91759H31.4467C31.9486 7.91759 32.3574 8.32632 32.3574 8.82826V42.7599ZM26.4803 21.9529C27.1918 22.6644 27.1918 23.8177 26.4803 24.5288L16.9091 34.1C16.1979 34.8115 15.0447 34.8115 14.3332 34.1L9.57674 29.3436C8.86563 28.6325 8.86563 27.4792 9.57674 26.7677C10.2882 26.0566 11.4411 26.0566 12.1526 26.7677L15.6213 30.2365L23.9045 21.9533C24.6159 21.2418 25.7689 21.2418 26.4803 21.9529Z" fill="white"/>
</svg>
