<svg width="34" height="34" viewBox="0 0 34 34" fill="none" xmlns="http://www.w3.org/2000/svg">
<path d="M28.4437 21.2025C29.8644 19.0448 30.6927 16.4641 30.6927 13.6929C30.6927 6.14258 24.5498 0 16.9995 0C9.44914 0 3.30656 6.14258 3.30656 13.6929C3.30656 16.4641 4.13483 19.0448 5.5553 21.2025L0.199219 29.0138L6.32805 27.8712L7.47096 34L12.522 26.6333C13.9259 27.1205 15.4322 27.3858 16.9995 27.3858C18.567 27.3858 20.0734 27.1205 21.477 26.6333L26.5283 34L27.6709 27.8712L33.7997 29.0138L28.4437 21.2025ZM8.55396 28.8769L7.93062 25.5337L4.58774 26.1573L6.84348 22.8674C7.92387 24.0621 9.21179 25.0655 10.6494 25.8214L8.55396 28.8769ZM5.31042 13.6929C5.31042 7.24762 10.5542 2.00386 16.9995 2.00386C23.445 2.00386 28.6888 7.24762 28.6888 13.6929C28.6888 20.1385 23.445 25.3822 16.9995 25.3822C10.5542 25.3822 5.31042 20.1385 5.31042 13.6929ZM26.0683 25.5337L25.445 28.8769L23.3498 25.8214C24.7874 25.0655 26.0753 24.0621 27.1557 22.8674L29.4115 26.1571L26.0683 25.5337Z" fill="white"/>
<path d="M14.5585 16.7001L11.3005 13.4423L9.88364 14.8592L14.5585 19.5341L24.1156 9.97726L22.6987 8.56042L14.5585 16.7001Z" fill="white"/>
</svg>
