<svg width="26" height="32" viewBox="0 0 26 32" fill="none" xmlns="http://www.w3.org/2000/svg">
<path d="M9.20833 11.6667C10.7017 11.6667 11.9167 10.4517 11.9167 8.95833C11.9167 7.46496 10.7017 6.25 9.20833 6.25C7.71496 6.25 6.5 7.46496 6.5 8.95833C6.5 10.4517 7.71496 11.6667 9.20833 11.6667ZM9.20833 8.05556C9.70613 8.05556 10.1111 8.46054 10.1111 8.95833C10.1111 9.45613 9.70613 9.86111 9.20833 9.86111C8.71054 9.86111 8.30556 9.45613 8.30556 8.95833C8.30556 8.46054 8.71054 8.05556 9.20833 8.05556Z" fill="white"/>
<path d="M14.0834 16.5415C14.0834 18.035 15.2983 19.2499 16.7917 19.2499C18.2851 19.2499 19.5 18.035 19.5 16.5415C19.5 15.0481 18.2851 13.8333 16.7917 13.8333C15.2983 13.8333 14.0834 15.0481 14.0834 16.5415ZM17.6945 16.5415C17.6945 17.0394 17.2895 17.4444 16.7917 17.4444C16.2939 17.4444 15.8889 17.0394 15.8889 16.5415C15.8889 16.0437 16.2939 15.6388 16.7917 15.6388C17.2895 15.6388 17.6945 16.0437 17.6945 16.5415Z" fill="white"/>
<path d="M9.1521 19.1254C9.30498 19.2098 9.47184 19.25 9.63647 19.25C9.97194 19.25 10.2983 19.0834 10.4781 18.7855L17.203 7.643C17.4712 7.19888 17.3121 6.63107 16.8478 6.37461C16.3834 6.11805 15.7898 6.27043 15.5218 6.71446L8.79682 17.857C8.52882 18.3011 8.68782 18.8689 9.1521 19.1254Z" fill="white"/>
<path d="M0.660625 19.2988L11.5877 30.5645C11.9633 30.9512 12.4636 31.165 12.9965 31.1666H13.0022C13.5329 31.1666 14.0322 30.9557 14.4127 30.5684L25.421 19.2188C26.1961 18.4208 26.1926 17.126 25.4128 16.3323C25.0346 15.9473 24.535 15.7353 24.0062 15.7353H23.0112V3.62737C23.0112 2.08669 21.7864 0.833252 20.281 0.833252H5.71975C4.2143 0.833252 2.98951 2.08669 2.98951 3.62737V15.7352H1.9978C0.896244 15.7352 0 16.6524 0 17.7797C0 18.3598 0.24026 18.9112 0.660625 19.2988ZM1.9978 17.598H3.89959C4.40214 17.598 4.80967 17.1809 4.80967 16.6666V3.62737C4.80967 3.11381 5.21793 2.696 5.71975 2.696H20.281C20.7828 2.696 21.1911 3.11381 21.1911 3.62737V16.6666C21.1911 17.1809 21.5986 17.598 22.1011 17.598H24.0062C24.032 17.598 24.0822 17.6051 24.1292 17.653C24.1975 17.7225 24.1979 17.8358 24.13 17.9057C24.1298 17.9059 24.1296 17.9062 24.1293 17.9063L13.1249 29.2519C13.0828 29.2947 13.0349 29.3037 13.002 29.3037C13.0018 29.3037 13.0016 29.3037 13.0015 29.3037C12.9685 29.3037 12.9203 29.2944 12.8788 29.2517L1.93182 17.9653C1.91562 17.9487 1.89897 17.9327 1.88168 17.9173C1.85865 17.8969 1.81997 17.852 1.81997 17.7796C1.82016 17.6795 1.89979 17.598 1.9978 17.598Z" fill="white"/>
</svg>
