<svg width="50" height="50" viewBox="0 0 50 50" fill="none" xmlns="http://www.w3.org/2000/svg">
<g clip-path="url(#clip0)">
<path d="M41.6551 27.7277L34.1894 16.0243C35.2472 15.4684 35.9708 14.3592 35.9708 13.0835C35.9708 11.6872 35.104 10.4903 33.8806 10.0003L36.1423 2.09318C36.2398 1.75205 36.1447 1.38494 35.8939 1.13404C34.3894 -0.370345 31.9416 -0.370345 30.4371 1.13404C30.0773 1.49393 29.5988 1.69208 29.0899 1.69208C28.581 1.69208 28.1025 1.49393 27.7404 1.1317L27.7356 1.12691C26.2365 -0.372396 23.7929 -0.376595 22.2877 1.11803L22.2597 1.14596C21.5168 1.8836 20.3102 1.88145 19.57 1.14117L19.5629 1.13404C18.0584 -0.370345 15.6106 -0.370345 14.1061 1.13404C13.8551 1.38513 13.7601 1.75254 13.8578 2.09387L16.1244 9.99845C14.8983 10.4871 14.0292 11.6854 14.0292 13.0836C14.0292 14.3593 14.7527 15.4685 15.8106 16.0244L8.34479 27.7277C5.45653 32.2554 5.27351 37.77 7.85521 42.4791C10.4369 47.1883 15.1845 49.9998 20.555 49.9998H29.4448C34.8152 49.9998 39.5628 47.1883 42.1446 42.4791C44.7263 37.77 44.5434 32.2554 41.6551 27.7277ZM18.1816 2.51518L18.1887 2.52231C19.6881 4.02152 22.1316 4.02562 23.6366 2.5312L23.6647 2.50327C24.4075 1.76562 25.6141 1.76777 26.3566 2.5103L26.3614 2.51508C27.8659 4.01947 30.3137 4.01947 31.8182 2.51508C32.4303 1.90294 33.3588 1.79522 34.0823 2.19192L31.9169 9.76299H18.0889L15.9179 2.19182C16.6414 1.79522 17.5696 1.90313 18.1816 2.51518ZM40.4319 41.5402C38.1984 45.6143 34.0911 48.0467 29.4449 48.0467H20.5551C15.9089 48.0467 11.8016 45.6144 9.56811 41.5402C7.33458 37.4661 7.49289 32.6953 9.99157 28.7782L17.8851 16.404H20.6052C21.1446 16.404 21.5818 15.9668 21.5818 15.4274C21.5818 14.888 21.1446 14.4508 20.6052 14.4508H17.3497C16.5958 14.4508 15.9825 13.8374 15.9825 13.0835C15.9825 12.3295 16.5958 11.7162 17.3497 11.7162H17.353H32.6502C33.4041 11.7162 34.0174 12.3295 34.0174 13.0835C34.0174 13.8374 33.4041 14.4508 32.6502 14.4508H29.3948C28.8554 14.4508 28.4182 14.888 28.4182 15.4274C28.4182 15.9668 28.8554 16.404 29.3948 16.404H32.1148L40.0084 28.7782C42.5071 32.6952 42.6654 37.466 40.4319 41.5402Z" fill="#0076B2"/>
<path d="M26.7217 31.8944C26.4766 31.8078 26.2265 31.7176 25.9765 31.624V27.1977C26.6387 27.3926 27.0809 27.7085 27.0996 27.7222C27.5293 28.044 28.1388 27.9586 28.4634 27.5302C28.7891 27.1003 28.7046 26.4877 28.2747 26.1619C28.2174 26.1185 27.3093 25.4444 25.9765 25.1892V24.2173C25.9765 23.6779 25.5393 23.2407 24.9999 23.2407C24.4605 23.2407 24.0233 23.6779 24.0233 24.2173V25.1822C23.8578 25.2139 23.6901 25.2541 23.5202 25.3051C22.1457 25.7182 21.1183 26.8936 20.8389 28.3728C20.5839 29.7235 21.0166 31.0262 21.9683 31.7725C22.4847 32.1775 23.13 32.5474 24.0233 32.9402V38.6042C23.2542 38.5556 22.7397 38.3805 21.882 37.8195C21.4307 37.5241 20.8253 37.6507 20.5301 38.1021C20.2348 38.5535 20.3613 39.1587 20.8127 39.4541C22.0634 40.2722 22.9102 40.5039 24.0233 40.5587V41.5686C24.0233 42.108 24.4605 42.5453 24.9999 42.5453C25.5393 42.5453 25.9765 42.108 25.9765 41.5686V40.4572C28.0679 39.9992 29.291 38.2541 29.5654 36.6216C29.9241 34.4872 28.8079 32.6318 26.7217 31.8944ZM23.1737 30.2355C22.7983 29.9411 22.6391 29.3661 22.7583 28.7351C22.8678 28.1548 23.2583 27.4551 24.0233 27.1962V30.7729C23.7022 30.6017 23.4124 30.4227 23.1737 30.2355ZM27.6391 36.2976C27.4985 37.1341 26.9339 38.0212 25.9764 38.4133V33.7021C26.0083 33.7135 26.0384 33.7245 26.0707 33.7359C27.8217 34.3548 27.7139 35.8531 27.6391 36.2976Z" fill="#0076B2"/>
<path d="M25.0001 16.4044C25.2569 16.4044 25.5089 16.2999 25.6905 16.1183C25.8722 15.9366 25.9767 15.6846 25.9767 15.4278C25.9767 15.1709 25.8722 14.919 25.6905 14.7373C25.5089 14.5557 25.2569 14.4512 25.0001 14.4512C24.7432 14.4512 24.4912 14.5557 24.3096 14.7373C24.1279 14.919 24.0234 15.1709 24.0234 15.4278C24.0234 15.6846 24.1279 15.9366 24.3096 16.1183C24.4912 16.2999 24.7431 16.4044 25.0001 16.4044Z" fill="#0076B2"/>
</g>
<defs>
<clipPath id="clip0">
<rect width="50" height="50" fill="white"/>
</clipPath>
</defs>
</svg>
