<svg width="24" height="24" viewBox="0 0 24 24" fill="none" xmlns="http://www.w3.org/2000/svg">
<g clip-path="url(#clip0)">
<path d="M19.9945 13.3094L16.411 7.69179C16.9187 7.42496 17.266 6.89252 17.266 6.2802C17.266 5.60999 16.85 5.03546 16.2627 4.80027L17.3483 1.00485C17.3952 0.841108 17.3495 0.664894 17.2291 0.544465C16.507 -0.177641 15.332 -0.177641 14.6099 0.544465C14.4371 0.71721 14.2075 0.812325 13.9632 0.812325C13.7189 0.812325 13.4892 0.71721 13.3154 0.54334L13.3131 0.541043C12.5936 -0.178625 11.4206 -0.180641 10.6981 0.536777L10.6847 0.550184C10.3281 0.904253 9.74891 0.903221 9.39362 0.547887L9.3902 0.544465C8.66805 -0.177641 7.4931 -0.177641 6.77095 0.544465C6.65047 0.664988 6.60486 0.841343 6.65179 1.00518L7.73973 4.79938C7.15122 5.03396 6.73406 5.6091 6.73406 6.28025C6.73406 6.89257 7.08133 7.42501 7.58911 7.69184L4.00553 13.3094C2.61917 15.4827 2.53132 18.1297 3.77053 20.3901C5.00975 22.6505 7.28857 24 9.86643 24H14.1335C16.7113 24 18.9902 22.6505 20.2294 20.3901C21.4686 18.1297 21.3808 15.4827 19.9945 13.3094ZM8.72721 1.20741L8.73063 1.21083C9.4503 1.93046 10.6232 1.93242 11.3456 1.2151L11.3591 1.20169C11.7156 0.847624 12.2948 0.848656 12.6512 1.20507L12.6535 1.20736C13.3757 1.92947 14.5506 1.92947 15.2728 1.20736C15.5666 0.913534 16.0123 0.861828 16.3595 1.05225L15.3202 4.68636H8.68272L7.64063 1.0522C7.9879 0.861828 8.43342 0.913628 8.72721 1.20741ZM19.4073 19.9394C18.3352 21.895 16.3637 23.0625 14.1336 23.0625H9.86648C7.63631 23.0625 5.66482 21.895 4.59272 19.9394C3.52063 17.9839 3.59662 15.6939 4.79599 13.8137L8.58489 7.87405H9.89053C10.1494 7.87405 10.3593 7.66418 10.3593 7.40527C10.3593 7.14637 10.1494 6.93649 9.89053 6.93649H8.3279C7.96601 6.93649 7.67161 6.6421 7.67161 6.2802C7.67161 5.91831 7.96601 5.62391 8.3279 5.62391H8.32945H15.6721C16.034 5.62391 16.3284 5.91831 16.3284 6.2802C16.3284 6.6421 16.034 6.93649 15.6721 6.93649H14.1095C13.8506 6.93649 13.6408 7.14637 13.6408 7.40527C13.6408 7.66418 13.8506 7.87405 14.1095 7.87405H15.4151L19.2041 13.8137C20.4034 15.6938 20.4794 17.9838 19.4073 19.9394Z" fill="black"/>
<path d="M12.8265 15.3096C12.7089 15.268 12.5888 15.2247 12.4688 15.1798V13.0552C12.7867 13.1487 12.9989 13.3003 13.0079 13.3069C13.2141 13.4614 13.5067 13.4204 13.6625 13.2147C13.8189 13.0084 13.7783 12.7144 13.572 12.558C13.5444 12.5371 13.1086 12.2136 12.4688 12.0911V11.6245C12.4688 11.3656 12.259 11.1558 12 11.1558C11.7411 11.1558 11.5313 11.3656 11.5313 11.6245V12.0877C11.4519 12.1029 11.3714 12.1222 11.2898 12.1467C10.63 12.345 10.1369 12.9092 10.0028 13.6192C9.88037 14.2675 10.0881 14.8928 10.5449 15.2511C10.7928 15.4455 11.1025 15.623 11.5313 15.8115V18.5303C11.1621 18.5069 10.9151 18.4229 10.5035 18.1536C10.2868 18.0118 9.99625 18.0726 9.85454 18.2893C9.71278 18.5059 9.77353 18.7964 9.9902 18.9382C10.5905 19.3309 10.997 19.4421 11.5313 19.4684V19.9532C11.5313 20.2121 11.7411 20.422 12 20.422C12.259 20.422 12.4688 20.2121 12.4688 19.9532V19.4197C13.4727 19.1999 14.0598 18.3622 14.1915 17.5786C14.3637 16.5541 13.8279 15.6635 12.8265 15.3096ZM11.1235 14.5133C10.9433 14.372 10.8669 14.096 10.9241 13.7931C10.9767 13.5146 11.1641 13.1787 11.5313 13.0544V14.7712C11.3771 14.689 11.238 14.6032 11.1235 14.5133ZM13.2669 17.4231C13.1994 17.8246 12.9284 18.2504 12.4688 18.4386V16.1773C12.4841 16.1827 12.4985 16.188 12.514 16.1935C13.3545 16.4906 13.3028 17.2098 13.2669 17.4231Z" fill="black"/>
<path d="M12 7.87408C12.1233 7.87408 12.2443 7.82392 12.3315 7.73673C12.4187 7.64954 12.4688 7.52859 12.4688 7.4053C12.4688 7.28201 12.4187 7.16107 12.3315 7.07388C12.2443 6.98668 12.1233 6.93652 12 6.93652C11.8767 6.93652 11.7558 6.98668 11.6686 7.07388C11.5814 7.16107 11.5312 7.28201 11.5312 7.4053C11.5312 7.52859 11.5814 7.64954 11.6686 7.73673C11.7558 7.82392 11.8767 7.87408 12 7.87408Z" fill="black"/>
</g>
<defs>
<clipPath id="clip0">
<rect width="24" height="24" fill="white"/>
</clipPath>
</defs>
</svg>
