<svg width="50" height="50" viewBox="0 0 50 50" fill="none" xmlns="http://www.w3.org/2000/svg">
<g clip-path="url(#clip0)">
<path d="M48.8951 15.6238C47.9711 14.3376 45.9485 13.2229 43.6921 13.8149C41.324 14.4362 40.1529 16.1052 39.0204 17.7193C38.7339 18.1274 38.4378 18.5495 38.1189 18.9631C37.795 19.3831 37.2712 19.8099 36.6403 20.2115V13.0459C36.6403 10.405 34.5025 8.25646 31.8749 8.25646C30.7302 8.25646 29.6785 8.66421 28.856 9.34269C28.2597 7.38119 26.4415 5.95031 24.2972 5.95031C22.1529 5.95031 20.3348 7.38119 19.7385 9.34269C18.916 8.66421 17.8642 8.25646 16.7196 8.25646C14.703 8.25646 12.9762 9.52249 12.2815 11.3048L8.19935 2.70199C7.19135 0.577591 5.05338 -0.472888 3.11523 0.204317C1.07209 0.918245 -0.0145253 3.25575 0.692956 5.41501L6.02583 21.6897V27.9106C6.02583 30.1718 6.63916 32.4014 7.23237 34.5577C7.72177 36.3367 8.18695 38.0324 8.32592 39.7099H8.12962C7.59031 39.7099 7.15297 40.1472 7.15297 40.6866V49.0234C7.15297 49.5628 7.59031 50 8.12962 50H35.1675C35.7068 50 36.1442 49.5628 36.1442 49.0234V40.6866C36.1442 40.1472 35.7068 39.7099 35.1675 39.7099H34.9582C35.2272 35.49 37.357 33.8412 39.8022 31.9506C41.9257 30.3086 44.3327 28.4476 45.6737 24.7434C46.6991 21.9109 47.7462 20.5561 48.5108 19.567C48.7381 19.273 48.9527 18.9953 49.1333 18.7207C49.7275 17.8166 49.6385 16.6589 48.8951 15.6238ZM31.8748 10.2099C33.4254 10.2099 34.6869 11.4821 34.6869 13.046V21.2348C33.5564 21.7262 32.3727 22.0927 31.4452 22.2243C30.6366 22.3391 29.8382 22.4616 29.0626 22.6156V13.046C29.0626 11.482 30.3242 10.2099 31.8748 10.2099ZM21.4849 10.7398C21.4849 9.17598 22.7465 7.9036 24.2971 7.9036C25.8478 7.9036 27.1093 9.17588 27.1093 10.7398V13.0459V23.1026C25.9856 23.4543 24.9445 23.9321 24.0353 24.6272C23.4164 25.1003 22.8853 25.657 22.439 26.2992C21.8436 25.7666 21.4849 24.995 21.4849 24.1768V21.8706V13.0459V10.7398ZM13.9073 13.0459C13.9073 11.482 15.1689 10.2098 16.7195 10.2098C18.2701 10.2098 19.5316 11.482 19.5316 13.0459V21.8706C19.5316 23.4345 18.2701 24.7068 16.7195 24.7068C15.1689 24.7068 13.9073 23.4345 13.9073 21.8706V13.0459ZM47.501 17.6478C47.3615 17.8599 47.1779 18.0974 46.9654 18.3725C46.1695 19.4022 44.9666 20.9585 43.837 24.0786C42.6892 27.2494 40.6141 28.8538 38.6075 30.4054C35.99 32.4292 33.2893 34.5213 33.0024 39.71H26.0432C25.5039 39.71 25.0666 40.1472 25.0666 40.6866C25.0666 41.2261 25.5039 41.6633 26.0432 41.6633H34.191V48.0468H9.10626V41.6633H17.2533C17.7926 41.6633 18.23 41.2261 18.23 40.6866C18.23 40.1472 17.7926 39.71 17.2533 39.71H10.2849C10.1447 37.7837 9.6232 35.8846 9.11564 34.0396C8.53121 31.9149 7.97902 29.9081 7.97902 27.9107V21.5339C7.97902 21.4305 7.96261 21.3279 7.93048 21.2297L2.54917 4.80686C2.17052 3.65129 2.71363 2.41388 3.75972 2.04832C4.9187 1.6434 5.95922 2.53713 6.43484 3.53937L11.9543 15.1711V21.8706C11.9543 24.5116 14.092 26.6601 16.7197 26.6601C17.8657 26.6601 18.9186 26.2513 19.7415 25.5714C20.0459 26.5632 20.6683 27.4402 21.5126 28.0559C20.9497 29.4994 20.6721 31.2427 20.6721 33.3068C20.6721 33.8462 21.1094 34.2835 21.6487 34.2835C22.188 34.2835 22.6254 33.8462 22.6254 33.3068C22.6254 29.7981 23.4504 27.5332 25.2219 26.1791C26.8514 24.9334 29.2253 24.5124 31.7199 24.1584C33.9501 23.8418 38.0629 22.2344 39.6656 20.1562C40.0115 19.7077 40.3205 19.2673 40.6195 18.8413C41.6768 17.3344 42.512 16.1441 44.1877 15.7045C45.4916 15.3623 46.7447 15.9783 47.3087 16.7635C47.4033 16.8954 47.6974 17.3491 47.501 17.6478Z" fill="#0076B2"/>
<path d="M21.6486 39.7099H21.6479C21.1086 39.7099 20.6716 40.1471 20.6716 40.6865C20.6716 41.2259 21.1092 41.6632 21.6486 41.6632C22.188 41.6632 22.6252 41.2259 22.6252 40.6865C22.6252 40.1471 22.188 39.7099 21.6486 39.7099Z" fill="#0076B2"/>
</g>
<defs>
<clipPath id="clip0">
<rect width="50" height="50" fill="white"/>
</clipPath>
</defs>
</svg>
