<svg width="50" height="50" viewBox="0 0 50 50" fill="none" xmlns="http://www.w3.org/2000/svg">
<path d="M28.9062 36.7187H25.7812V34.375C25.7801 33.3394 25.3682 32.3465 24.6359 31.6141C23.9035 30.8818 22.9106 30.4699 21.875 30.4688C21.6944 30.4687 21.5194 30.5313 21.3797 30.6458C21.24 30.7603 21.1443 30.9197 21.1089 31.0968L20.358 34.8515L19.1132 36.7187H17.1875V35.9375C17.1875 35.7303 17.1052 35.5316 16.9587 35.3851C16.8122 35.2386 16.6135 35.1562 16.4062 35.1562H7.03125V36.7187H15.625V46.0937H7.03125V47.6562H16.4062C16.6135 47.6562 16.8122 47.5739 16.9587 47.4274C17.1052 47.2809 17.1875 47.0822 17.1875 46.875V46.0937H18.4349C20.0558 47.6057 22.1917 48.4437 24.4083 48.4375H28.9062C29.7348 48.4366 30.5291 48.107 31.1149 47.5212C31.7008 46.9353 32.0303 46.141 32.0312 45.3125V39.8437C32.0303 39.0152 31.7008 38.2209 31.1149 37.6351C30.5291 37.0492 29.7348 36.7197 28.9062 36.7187ZM30.4688 45.3125C30.4683 45.7267 30.3035 46.1239 30.0106 46.4168C29.7176 46.7097 29.3205 46.8745 28.9062 46.875H24.4083C23.4597 46.8776 22.5199 46.692 21.6435 46.329C20.7671 45.9659 19.9714 45.4327 19.3024 44.76C19.2299 44.6875 19.1438 44.63 19.049 44.5907C18.9542 44.5514 18.8526 44.5312 18.75 44.5312H17.1875V38.2812H19.5312C19.6599 38.2812 19.7865 38.2495 19.8999 38.1888C20.0133 38.1281 20.1099 38.0404 20.1813 37.9334L21.7438 35.5896C21.8004 35.5047 21.8398 35.4095 21.8599 35.3095L22.4986 32.1154C22.9927 32.2526 23.4283 32.5477 23.7389 32.9557C24.0495 33.3638 24.2181 33.8622 24.2188 34.375V36.7187H22.6562V38.2812H28.9062C29.3205 38.2817 29.7176 38.4465 30.0106 38.7394C30.3035 39.0323 30.4683 39.4295 30.4688 39.8437V45.3125Z" fill="#0076B2"/>
<path d="M12.5 42.9688H14.0625V44.5312H12.5V42.9688Z" fill="#0076B2"/>
<path d="M42.9688 1.5625H10.1562C9.94905 1.5625 9.75034 1.64481 9.60382 1.79132C9.45731 1.93784 9.375 2.13655 9.375 2.34375V33.5938H10.9375V3.125H42.1875V43.75H33.5938V45.3125H42.9688C43.1759 45.3125 43.3747 45.2302 43.5212 45.0837C43.6677 44.9372 43.75 44.7384 43.75 44.5312V2.34375C43.75 2.13655 43.6677 1.93784 43.5212 1.79132C43.3747 1.64481 43.1759 1.5625 42.9688 1.5625Z" fill="#0076B2"/>
<path d="M22.6561 12.5C22.6559 12.9007 22.7176 13.299 22.839 13.6809L20.3797 19.214C20.2981 19.3976 20.2905 19.6057 20.3584 19.7948C20.4263 19.984 20.5645 20.1397 20.7442 20.2296L23.8692 21.7921C23.9672 21.8411 24.0743 21.8689 24.1837 21.8738C24.2931 21.8787 24.4023 21.8606 24.5042 21.8206C24.6061 21.7805 24.6985 21.7195 24.7753 21.6415C24.8522 21.5635 24.9117 21.4702 24.9502 21.3677L26.5624 17.0684L28.1746 21.3681C28.213 21.4706 28.2726 21.5639 28.3494 21.6419C28.4263 21.7199 28.5186 21.7809 28.6206 21.8209C28.7225 21.861 28.8317 21.8791 28.9411 21.8742C29.0505 21.8693 29.1576 21.8415 29.2555 21.7925L32.3805 20.23C32.5603 20.1401 32.6984 19.9844 32.7663 19.7952C32.8342 19.6061 32.8266 19.398 32.7451 19.2143L30.2857 13.6812C30.4561 13.1441 30.5083 12.5765 30.4387 12.0173C30.3691 11.4581 30.1793 10.9206 29.8823 10.4416C29.5854 9.96268 29.1884 9.55365 28.7185 9.24261C28.2486 8.93157 27.7169 8.72589 27.16 8.63967C26.6032 8.55345 26.0342 8.58874 25.4923 8.74311C24.9503 8.89749 24.4482 9.1673 24.0203 9.53402C23.5924 9.90075 23.249 10.3557 23.0135 10.8677C22.778 11.3796 22.6561 11.9365 22.6561 12.5ZM23.7918 20.0068L22.1107 19.1664L23.8332 15.291C24.2308 15.6806 24.7068 15.9809 25.2297 16.1719L23.7918 20.0068ZM29.333 20.0068L27.8951 16.1719C28.4179 15.9809 28.894 15.6806 29.2916 15.291L31.014 19.1664L29.333 20.0068ZM26.5624 10.1562C27.0259 10.1562 27.4791 10.2937 27.8645 10.5512C28.2499 10.8088 28.5503 11.1748 28.7277 11.6031C28.9051 12.0313 28.9515 12.5026 28.8611 12.9572C28.7707 13.4119 28.5474 13.8295 28.2197 14.1573C27.8919 14.4851 27.4743 14.7083 27.0196 14.7987C26.565 14.8891 26.0937 14.8427 25.6655 14.6653C25.2372 14.4879 24.8712 14.1875 24.6136 13.8021C24.3561 13.4167 24.2186 12.9635 24.2186 12.5C24.2194 11.8786 24.4665 11.2829 24.9059 10.8435C25.3453 10.4041 25.941 10.157 26.5624 10.1562Z" fill="#0076B2"/>
<path d="M25.7812 5.46875H27.3438V7.03125H25.7812V5.46875Z" fill="#0076B2"/>
<path d="M21.0352 8.08203L22.1399 6.97728L23.2447 8.08203L22.1399 9.18679L21.0352 8.08203Z" fill="#0076B2"/>
<path d="M19.5312 11.7188H21.0938V13.2812H19.5312V11.7188Z" fill="#0076B2"/>
<path d="M32.0312 11.7188H33.5938V13.2812H32.0312V11.7188Z" fill="#0076B2"/>
<path d="M29.8728 8.08311L30.9776 6.97836L32.0823 8.08311L30.9776 9.18787L29.8728 8.08311Z" fill="#0076B2"/>
<path d="M25.7812 11.7188H27.3438V13.2812H25.7812V11.7188Z" fill="#0076B2"/>
<path d="M15.625 23.4375H17.1875V25H15.625V23.4375Z" fill="#0076B2"/>
<path d="M18.75 23.4375H39.0625V25H18.75V23.4375Z" fill="#0076B2"/>
<path d="M14.0625 26.5625H39.0625V28.125H14.0625V26.5625Z" fill="#0076B2"/>
<path d="M25.7812 29.6875H39.0625V31.25H25.7812V29.6875Z" fill="#0076B2"/>
<path d="M14.0625 29.6875H19.5312V31.25H14.0625V29.6875Z" fill="#0076B2"/>
<path d="M37.5 39.0625H39.0625V40.625H37.5V39.0625Z" fill="#0076B2"/>
<path d="M34.375 39.0625H35.9375V40.625H34.375V39.0625Z" fill="#0076B2"/>
</svg>
