<svg width="274" height="54" viewBox="0 0 274 54" fill="none" xmlns="http://www.w3.org/2000/svg">
<path fill-rule="evenodd" clip-rule="evenodd" d="M85.2467 44.1052L83.9301 48.8987L82.6392 53.5982H87.4576L88.4257 50.0739L88.5858 49.4912H93.4214L93.5815 50.0739L94.5496 53.5982H99.3679L98.0771 48.8987L96.7606 44.1052L95.4439 39.3117L94.6174 36.302H92.2082H89.799H87.3899L86.5633 39.3117L85.2467 44.1052ZM89.8329 44.9507L91.0036 40.688L92.1743 44.9507H89.8329ZM71.5776 36.3022H76.2318C79.3224 36.3022 81.8276 38.7464 81.8276 41.7614C81.8276 42.9518 81.4368 44.0531 80.7737 44.9502C81.4368 45.8473 81.8276 46.9488 81.8276 48.1393C81.8276 51.1543 79.3224 53.5985 76.2318 53.5985H71.5776H66.9233V36.3022H71.5776ZM71.5776 42.6801H76.2318C76.7518 42.6801 77.1734 42.2688 77.1734 41.7614C77.1734 41.254 76.7518 40.8428 76.2318 40.8428H71.5776V42.6801ZM71.5776 49.0579H76.2318C76.7518 49.0579 77.1734 48.6467 77.1734 48.1393C77.1734 47.6319 76.7518 47.2206 76.2318 47.2206H71.5776V49.0579ZM115.217 36.3024H119.871V53.5987H118.983H115.217H112.889H108.235H105.908H101.254V49.0581V36.3024H105.908V49.0581H108.235V36.3024H112.889V49.0581H115.217V36.3024ZM140.598 53.5588H139.614H134.96C131.869 53.5588 129.364 51.1147 129.364 48.0996V41.7616C129.364 38.7466 131.869 36.3024 134.96 36.3024H139.614H142.03V40.843H139.614H134.96C134.44 40.843 134.018 41.2542 134.018 41.7616V48.0996C134.018 48.607 134.44 49.0183 134.96 49.0183H139.614H141.845L140.598 53.5588ZM145.529 44.1052L144.212 48.8987L142.921 53.5982H147.74L148.708 50.0739L148.868 49.4912H153.703L153.864 50.0739L154.832 53.5982H159.65L158.359 48.8987L157.043 44.1052L155.726 39.3117L154.9 36.302H152.49H150.081H147.672L146.845 39.3117L145.529 44.1052ZM150.115 44.9507L151.286 40.688L152.456 44.9507H150.115ZM171.279 36.3024V42.6803H166.625V36.3024H161.971V42.6803V47.2208V53.5987H166.625V47.2208H171.279V53.5987H175.933V36.3024H171.279ZM189.645 36.3024V40.843H186.63V53.5987H181.976V40.843H178.96V36.3024H181.976H186.63H189.645ZM191.972 36.3024H194.299H196.626H204.984V40.843H196.626V42.6508H204.984V47.1913H196.626V49.0581H204.984V53.5987H196.626H194.299H191.972V36.3024ZM215.87 44.9212L218.253 53.5987H223.072L220.688 44.9212L223.055 36.3024H218.237L215.87 44.9212L213.487 53.5987H208.668L211.052 44.9212L208.685 36.3024H213.503L215.87 44.9212ZM235.13 36.3024H239.784V53.5987H235.13V47.1913H230.476V53.5987H225.822V47.1913H225.822V42.6508H225.822V36.3024H230.476V42.6508H235.13V36.3024ZM267.43 47.2208H265.505V53.5987H260.851V36.3024H265.505V42.6803H267.414L269.166 36.3024H273.984L271.617 44.9212L274 53.5987H269.182L267.43 47.2208ZM252.734 53.5987V44.7879L247.901 53.5987H243.247V36.3024H247.901V45.1019C250.302 40.7276 252.734 36.3024 252.734 36.3024H257.388V53.5987H252.734Z" fill="white"/>
<path fill-rule="evenodd" clip-rule="evenodd" d="M85.2467 44.1052L83.9301 48.8987L82.6392 53.5982H87.4576L88.4257 50.0739L88.5858 49.4912H93.4214L93.5815 50.0739L94.5496 53.5982H99.3679L98.0771 48.8987L96.7606 44.1052L95.4439 39.3117L94.6174 36.302H92.2082H89.799H87.3899L86.5633 39.3117L85.2467 44.1052ZM89.8329 44.9507L91.0036 40.688L92.1743 44.9507H89.8329ZM71.5776 36.3022H76.2318C79.3224 36.3022 81.8276 38.7464 81.8276 41.7614C81.8276 42.9518 81.4368 44.0531 80.7737 44.9502C81.4368 45.8473 81.8276 46.9488 81.8276 48.1393C81.8276 51.1543 79.3224 53.5985 76.2318 53.5985H71.5776H66.9233V36.3022H71.5776ZM71.5776 42.6801H76.2318C76.7518 42.6801 77.1734 42.2688 77.1734 41.7614C77.1734 41.254 76.7518 40.8428 76.2318 40.8428H71.5776V42.6801ZM71.5776 49.0579H76.2318C76.7518 49.0579 77.1734 48.6467 77.1734 48.1393C77.1734 47.6319 76.7518 47.2206 76.2318 47.2206H71.5776V49.0579ZM115.217 36.3024H119.871V53.5987H118.983H115.217H112.889H108.235H105.908H101.254V49.0581V36.3024H105.908V49.0581H108.235V36.3024H112.889V49.0581H115.217V36.3024ZM140.598 53.5588H139.614H134.96C131.869 53.5588 129.364 51.1147 129.364 48.0996V41.7616C129.364 38.7466 131.869 36.3024 134.96 36.3024H139.614H142.03V40.843H139.614H134.96C134.44 40.843 134.018 41.2542 134.018 41.7616V48.0996C134.018 48.607 134.44 49.0183 134.96 49.0183H139.614H141.845L140.598 53.5588ZM145.529 44.1052L144.212 48.8987L142.921 53.5982H147.74L148.708 50.0739L148.868 49.4912H153.703L153.864 50.0739L154.832 53.5982H159.65L158.359 48.8987L157.043 44.1052L155.726 39.3117L154.9 36.302H152.49H150.081H147.672L146.845 39.3117L145.529 44.1052ZM150.115 44.9507L151.286 40.688L152.456 44.9507H150.115ZM171.279 36.3024V42.6803H166.625V36.3024H161.971V42.6803V47.2208V53.5987H166.625V47.2208H171.279V53.5987H175.933V36.3024H171.279ZM189.645 36.3024V40.843H186.63V53.5987H181.976V40.843H178.96V36.3024H181.976H186.63H189.645ZM191.972 36.3024H194.299H196.626H204.984V40.843H196.626V42.6508H204.984V47.1913H196.626V49.0581H204.984V53.5987H196.626H194.299H191.972V36.3024ZM215.87 44.9212L218.253 53.5987H223.072L220.688 44.9212L223.055 36.3024H218.237L215.87 44.9212L213.487 53.5987H208.668L211.052 44.9212L208.685 36.3024H213.503L215.87 44.9212ZM235.13 36.3024H239.784V53.5987H235.13V47.1913H230.476V53.5987H225.822V47.1913H225.822V42.6508H225.822V36.3024H230.476V42.6508H235.13V36.3024ZM267.43 47.2208H265.505V53.5987H260.851V36.3024H265.505V42.6803H267.414L269.166 36.3024H273.984L271.617 44.9212L274 53.5987H269.182L267.43 47.2208ZM252.734 53.5987V44.7879L247.901 53.5987H243.247V36.3024H247.901V45.1019C250.302 40.7276 252.734 36.3024 252.734 36.3024H257.388V53.5987H252.734Z" fill="url(#paint0_linear)"/>
<path fill-rule="evenodd" clip-rule="evenodd" d="M30.251 11.9557V11.9666V15.6991H27.7439H26.4422V11.9666V11.9557H26.3881C26.3332 9.89836 24.6379 8.2472 22.5544 8.2472L22.5439 8.24748L22.5317 8.2472C20.4372 8.2472 18.7372 9.89525 18.7197 11.9346V11.9557V11.9666H18.7196C18.7135 15.0884 16.1177 17.6172 12.9165 17.6172V17.6165L12.8578 17.6172V13.8631C13.9375 13.8628 14.8125 13.0092 14.8125 11.9559V11.9557V11.9341H14.8128C14.8308 7.7899 18.2795 4.43586 22.5317 4.43586C26.7913 4.43586 30.2448 7.80156 30.2508 11.9557H30.251ZM39.7287 48.3078H36.4131V50.233H35.08H31.6414H31.083L26.5213 33.6252H19.0621L15.5353 46.4661H19.5327L22.0248 37.3922H23.5586L26.5635 48.3325L27.1213 50.3634V54H28.1201H31.6414H35.8088H36.4131H40.3323H43.3095H44.8558C44.9564 53.6277 45.0102 53.2368 45.0102 52.8336C45.0102 50.3134 42.9157 48.2701 40.3323 48.2701C40.1277 48.2701 39.9263 48.283 39.7287 48.3078ZM18.6842 48.3078H14.765V50.233H14.5005H10.5034L15.3325 32.6504L16.3792 28.8834H5.76775V28.9193H5.76756C4.69451 28.9193 3.82465 28.0707 3.82465 27.0238C3.82465 25.977 4.69451 25.1283 5.76756 25.1283H5.76775V25.1165H17.9388H22.5809H26.4422H30.251H32.4002H32.4156L34.3062 21.6625V21.6623L34.4773 21.3495H34.4658L44.2621 3.48433C47.5511 8.73458 49.5689 14.8251 49.8963 21.3495H38.8521L36.7905 25.1165H49.8963C49.8324 26.3898 49.7039 27.6462 49.5144 28.8834H45.7503H42.5765H39.0297H31.7223H29.2559L30.251 32.6504L34.0455 46.4661H38.0431L34.2484 32.6504H39.0297H42.5765H45.7503H48.7345C47.3994 37.7472 45.0058 42.431 41.796 46.4661H46.5398C50.7811 40.3148 53.3857 33.0005 53.7453 25.1165H58.8935C59.7635 28.6664 63.0362 31.3057 66.9414 31.3057V25.1165V21.3495V15.1603C63.0362 15.1603 59.7635 17.7996 58.8935 21.3495H53.7453C53.3857 13.4655 50.7811 6.15125 46.5398 0H41.796L30.251 21.3495H26.4422H22.5809H20.077H17.9388H5.76775V21.397C2.58243 21.397 0 23.9163 0 27.0236C0 30.1312 2.58243 32.6504 5.76775 32.6504H11.3351L6.5058 50.233H5.14466V54H10.5034H14.765H18.6842H22.7917H23.812C23.9126 53.6277 23.9665 53.2368 23.9665 52.8336C23.9665 50.3134 21.872 48.2701 19.2886 48.2701C19.0837 48.2701 18.882 48.283 18.6842 48.3079V48.3078ZM26.4306 19.4301V15.6991C25.3576 15.6991 24.4877 14.8504 24.4877 13.8035V13.8034V12.2046H20.6631V13.8034C20.6631 16.9109 23.2454 19.43 26.4306 19.4301Z" fill="#262626"/>
<defs>
<linearGradient id="paint0_linear" x1="170.462" y1="36.302" x2="170.462" y2="53.5987" gradientUnits="userSpaceOnUse">
<stop stop-color="#0076B2"/>
<stop offset="1" stop-color="#00A9E9"/>
</linearGradient>
</defs>
</svg>
