<svg width="513" height="101" viewBox="0 0 513 101" fill="none" xmlns="http://www.w3.org/2000/svg">
<path fill-rule="evenodd" clip-rule="evenodd" d="M159.604 82.493L157.139 91.4587L154.722 100.249H163.744L165.556 93.6566L165.856 92.5669H174.909L175.209 93.6566L177.022 100.249H186.043L183.626 91.4587L181.161 82.493L178.696 73.5274L177.149 67.8981H172.638H168.127H163.617L162.069 73.5274L159.604 82.493ZM168.191 84.0744L170.383 76.1016L172.575 84.0744H168.191ZM134.012 67.8986H142.726C148.512 67.8986 153.203 72.4701 153.203 78.1092C153.203 80.3359 152.471 82.3956 151.23 84.0735C152.471 85.7515 153.203 87.8116 153.203 90.0382C153.203 95.6775 148.512 100.249 142.726 100.249H134.012H125.298V67.8986H134.012ZM134.012 79.8276H142.726C143.7 79.8276 144.489 79.0583 144.489 78.1092C144.489 77.1603 143.7 76.3911 142.726 76.3911H134.012V79.8276ZM134.012 91.7564H142.726C143.7 91.7564 144.489 90.9873 144.489 90.0382C144.489 89.0893 143.7 88.32 142.726 88.32H134.012V91.7564ZM215.716 67.8989H224.43V100.249H222.767H215.716H211.359H202.645H198.287H189.574V91.7569V67.8989H198.287V91.7569H202.645V67.8989H211.359V91.7569H215.716V67.8989ZM263.236 100.175H261.394H252.68C246.893 100.175 242.203 95.6035 242.203 89.964V78.1096C242.203 72.4705 246.893 67.8989 252.68 67.8989H261.394H265.917V76.3915H261.394H252.68C251.706 76.3915 250.917 77.1606 250.917 78.1096V89.964C250.917 90.9131 251.706 91.6824 252.68 91.6824H261.394H265.571L263.236 100.175ZM272.468 82.493L270.003 91.4587L267.586 100.249H276.607L278.42 93.6566L278.72 92.5669H287.773L288.073 93.6566L289.886 100.249H298.907L296.49 91.4587L294.025 82.493L291.56 73.5274L290.013 67.8981H285.502H280.991H276.481L274.933 73.5274L272.468 82.493ZM281.055 84.0744L283.246 76.1016L285.438 84.0744H281.055ZM320.68 67.8989V79.8279H311.966V67.8989H303.252V79.8279V88.3204V100.249H311.966V88.3204H320.68V100.249H329.394V67.8989H320.68ZM355.065 67.8989V76.3915H349.42V100.249H340.707V76.3915H335.061V67.8989H340.707H349.42H355.065ZM359.422 67.8989H363.779H368.136H383.783V76.3915H368.136V79.7727H383.783V88.2651H368.136V91.7569H383.783V100.249H368.136H363.779H359.422V67.8989ZM404.165 84.0192L408.627 100.249H417.649L413.186 84.0192L417.618 67.8989H408.597L404.165 84.0192L399.703 100.249H390.682L395.145 84.0192L390.713 67.8989H399.734L404.165 84.0192ZM440.225 67.8989H448.939V100.249H440.225V88.2651H431.511V100.249H422.797V88.2651H422.797V79.7727H422.797V67.8989H431.511V79.7727H440.225V67.8989ZM500.699 88.3204H497.095V100.249H488.381V67.8989H497.095V79.8279H500.669L503.949 67.8989H512.969L508.537 84.0192L513 100.249H503.979L500.699 88.3204ZM473.184 100.249V83.77L464.136 100.249H455.422V67.8989H464.136V84.3572C468.632 76.1757 473.184 67.8989 473.184 67.8989H481.898V100.249H473.184Z" fill="white"/>
<path fill-rule="evenodd" clip-rule="evenodd" d="M159.604 82.493L157.139 91.4587L154.722 100.249H163.744L165.556 93.6566L165.856 92.5669H174.909L175.209 93.6566L177.022 100.249H186.043L183.626 91.4587L181.161 82.493L178.696 73.5274L177.149 67.8981H172.638H168.127H163.617L162.069 73.5274L159.604 82.493ZM168.191 84.0744L170.383 76.1016L172.575 84.0744H168.191ZM134.012 67.8986H142.726C148.512 67.8986 153.203 72.4701 153.203 78.1092C153.203 80.3359 152.471 82.3956 151.23 84.0735C152.471 85.7515 153.203 87.8116 153.203 90.0382C153.203 95.6775 148.512 100.249 142.726 100.249H134.012H125.298V67.8986H134.012ZM134.012 79.8276H142.726C143.7 79.8276 144.489 79.0583 144.489 78.1092C144.489 77.1603 143.7 76.3911 142.726 76.3911H134.012V79.8276ZM134.012 91.7564H142.726C143.7 91.7564 144.489 90.9873 144.489 90.0382C144.489 89.0893 143.7 88.32 142.726 88.32H134.012V91.7564ZM215.716 67.8989H224.43V100.249H222.767H215.716H211.359H202.645H198.287H189.574V91.7569V67.8989H198.287V91.7569H202.645V67.8989H211.359V91.7569H215.716V67.8989ZM263.236 100.175H261.394H252.68C246.893 100.175 242.203 95.6035 242.203 89.964V78.1096C242.203 72.4705 246.893 67.8989 252.68 67.8989H261.394H265.917V76.3915H261.394H252.68C251.706 76.3915 250.917 77.1606 250.917 78.1096V89.964C250.917 90.9131 251.706 91.6824 252.68 91.6824H261.394H265.571L263.236 100.175ZM272.468 82.493L270.003 91.4587L267.586 100.249H276.607L278.42 93.6566L278.72 92.5669H287.773L288.073 93.6566L289.886 100.249H298.907L296.49 91.4587L294.025 82.493L291.56 73.5274L290.013 67.8981H285.502H280.991H276.481L274.933 73.5274L272.468 82.493ZM281.055 84.0744L283.246 76.1016L285.438 84.0744H281.055ZM320.68 67.8989V79.8279H311.966V67.8989H303.252V79.8279V88.3204V100.249H311.966V88.3204H320.68V100.249H329.394V67.8989H320.68ZM355.065 67.8989V76.3915H349.42V100.249H340.707V76.3915H335.061V67.8989H340.707H349.42H355.065ZM359.422 67.8989H363.779H368.136H383.783V76.3915H368.136V79.7727H383.783V88.2651H368.136V91.7569H383.783V100.249H368.136H363.779H359.422V67.8989ZM404.165 84.0192L408.627 100.249H417.649L413.186 84.0192L417.618 67.8989H408.597L404.165 84.0192L399.703 100.249H390.682L395.145 84.0192L390.713 67.8989H399.734L404.165 84.0192ZM440.225 67.8989H448.939V100.249H440.225V88.2651H431.511V100.249H422.797V88.2651H422.797V79.7727H422.797V67.8989H431.511V79.7727H440.225V67.8989ZM500.699 88.3204H497.095V100.249H488.381V67.8989H497.095V79.8279H500.669L503.949 67.8989H512.969L508.537 84.0192L513 100.249H503.979L500.699 88.3204ZM473.184 100.249V83.77L464.136 100.249H455.422V67.8989H464.136V84.3572C468.632 76.1757 473.184 67.8989 473.184 67.8989H481.898V100.249H473.184Z" fill="url(#paint0_linear)"/>
<path fill-rule="evenodd" clip-rule="evenodd" d="M56.6377 22.3617V22.382V29.3631H51.9438H49.5067V22.382V22.3617H49.4054C49.3027 18.5136 46.1286 15.4253 42.2277 15.4253L42.208 15.4258L42.1853 15.4253C38.2638 15.4253 35.0809 18.5078 35.0483 22.3221V22.3617V22.382H35.048C35.0367 28.2208 30.1767 32.9507 24.1831 32.9507V32.9493L24.0731 32.9507V25.9291C26.0947 25.9286 27.7329 24.3321 27.7329 22.362V22.3617V22.3213H27.7335C27.7672 14.57 34.224 8.29671 42.1853 8.29671C50.1603 8.29671 56.6262 14.5918 56.6375 22.3617H56.6377ZM74.3826 90.3535H68.1749V93.9543H65.679H59.2409H58.1955L49.6548 62.8916H35.6893L29.0861 86.9088H36.5704L41.2362 69.9373H44.1079L49.7339 90.3997L50.7782 94.1981V101H52.6482H59.2409H67.0434H68.1749H75.5126H81.0868H83.9818C84.1702 100.304 84.2709 99.5726 84.2709 98.8184C84.2709 94.1047 80.3495 90.2829 75.5126 90.2829C75.1297 90.2829 74.7525 90.307 74.3826 90.3535ZM34.9816 90.3535H27.644V93.9543H27.1488H19.6651L28.7065 61.0683L30.6662 54.0227H10.7987V54.0899H10.7984C8.78936 54.0899 7.16074 52.5026 7.16074 50.5446C7.16074 48.5866 8.78936 46.9993 10.7984 46.9993H10.7987V46.9771H33.5861H42.2774H49.5067H56.6377H60.6616H60.6904L64.2302 40.5169V40.5165L64.5506 39.9314H64.529L82.8703 6.51698C89.0282 16.3369 92.806 27.7284 93.419 39.9314H72.7414L68.8814 46.9771H93.419C93.2993 49.3586 93.0588 51.7087 92.7039 54.0227H85.6565H79.7145H73.0739H59.3925H54.7747L56.6377 61.0683L63.7421 86.9088H71.2267L64.122 61.0683H73.0739H79.7145H85.6565H91.2439C88.7441 70.6013 84.2626 79.3616 78.253 86.9088H87.1348C95.0755 75.4035 99.9521 61.7232 100.625 46.9771H110.264C111.893 53.6169 118.02 58.5532 125.332 58.5532V46.9771V39.9314V28.3553C118.02 28.3553 111.893 33.2919 110.264 39.9314H100.625C99.9521 25.1854 95.0755 11.5051 87.1348 0H78.253L56.6377 39.9314H49.5067H42.2774H37.5893H33.5861H10.7987V40.0203C4.83499 40.0203 0 44.7323 0 50.5442C0 56.3565 4.83499 61.0683 10.7987 61.0683H21.2222L12.1806 93.9543H9.63215V101H19.6651H27.644H34.9816H42.6721H44.5823C44.7707 100.304 44.8715 99.5726 44.8715 98.8184C44.8715 94.1047 40.9501 90.2829 36.1132 90.2829C35.7298 90.2829 35.3521 90.3071 34.9816 90.3537V90.3535ZM49.4851 36.3415V29.3631C47.4761 29.3631 45.8474 27.7757 45.8474 25.8177V25.8174V22.8272H38.6867V25.8174C38.6867 31.6296 43.5215 36.3413 49.4851 36.3415Z" fill="#262626"/>
<defs>
<linearGradient id="paint0_linear" x1="319.149" y1="67.8981" x2="319.149" y2="100.249" gradientUnits="userSpaceOnUse">
<stop stop-color="#0076B2"/>
<stop offset="1" stop-color="#00A9E9"/>
</linearGradient>
</defs>
</svg>
