<svg width="44" height="44" viewBox="0 0 44 44" fill="none" xmlns="http://www.w3.org/2000/svg">
<ellipse cx="22" cy="21.7822" rx="22" ry="21.7822" fill="#64B161"/>
<path d="M10.0643 33.6481L11.7497 27.5545C10.7101 25.771 10.1633 23.7479 10.164 21.6753C10.1667 15.1914 15.4959 9.91628 22.0445 9.91628C25.2223 9.9176 28.2051 11.1423 30.4481 13.365C32.691 15.5878 33.9258 18.5424 33.9247 21.6848C33.9218 28.1685 28.5918 33.4444 22.0445 33.4444C22.0441 33.4444 22.0446 33.4444 22.0445 33.4444H22.0393C20.051 33.4436 18.0975 32.9499 16.3623 32.0128L10.0643 33.6481ZM16.6539 29.8841L17.0147 30.0957C18.5305 30.9864 20.2684 31.4574 22.0406 31.4584H22.0445C27.4867 31.4584 31.9163 27.0734 31.9186 21.684C31.9196 19.0723 30.8936 16.6163 29.0292 14.7689C27.1647 12.9216 24.6858 11.9036 22.0481 11.9025C16.6014 11.9025 12.172 16.2869 12.1699 21.6761C12.1691 23.5229 12.6909 25.3213 13.6795 26.8777L13.9145 27.2475L12.9167 30.8542L16.6539 29.8841Z" fill="white"/>
<path fill-rule="evenodd" clip-rule="evenodd" d="M19.0752 16.7594C18.8529 16.27 18.6187 16.2601 18.4071 16.2516C18.234 16.2443 18.036 16.2446 17.8383 16.2446C17.6404 16.2446 17.3188 16.3184 17.0468 16.6124C16.7746 16.9065 16.0076 17.6175 16.0076 19.0636C16.0076 20.5099 17.0714 21.9073 17.2198 22.1035C17.3682 22.2996 19.2735 25.362 22.2907 26.5402C24.7983 27.5194 25.3084 27.3246 25.8528 27.2756C26.3971 27.2266 27.609 26.5646 27.8564 25.8783C28.1039 25.192 28.1039 24.6039 28.0296 24.4808C27.9553 24.3585 27.7574 24.2849 27.4606 24.138C27.1638 23.991 25.7044 23.2798 25.4322 23.1818C25.16 23.0837 24.9622 23.0349 24.7643 23.3291C24.5662 23.623 23.9978 24.2849 23.8246 24.4808C23.6513 24.6773 23.4781 24.7019 23.1813 24.5547C22.8845 24.4074 21.9283 24.0973 20.7942 23.096C19.9118 22.317 19.3159 21.3549 19.1426 21.0606C18.9696 20.7667 19.1398 20.6215 19.2731 20.461C19.5132 20.1718 19.916 19.652 20.0149 19.456C20.1138 19.2598 20.0644 19.0882 19.9903 18.9411C19.916 18.7942 19.339 17.3407 19.0752 16.7594Z" fill="white"/>
</svg>
